<?xml version="1.0" encoding="UTF-8" standalone="no"?>
<!-- Created with Inkscape (http://www.inkscape.org/) -->

<svg
   xmlns:dc="http://purl.org/dc/elements/1.1/"
   xmlns:cc="http://creativecommons.org/ns#"
   xmlns:rdf="http://www.w3.org/1999/02/22-rdf-syntax-ns#"
   xmlns:svg="http://www.w3.org/2000/svg"
   xmlns="http://www.w3.org/2000/svg"
   xmlns:inkscape="http://www.inkscape.org/namespaces/inkscape"
   version="1.1"
   width="526.46252"
   height="275.23749"
   id="svg2"
   xml:space="preserve"><metadata
     id="metadata8"><rdf:RDF><cc:Work
         rdf:about=""><dc:format>image/svg+xml</dc:format><dc:type
           rdf:resource="http://purl.org/dc/dcmitype/StillImage" /></cc:Work></rdf:RDF></metadata><defs
     id="defs6"><clipPath
       id="clipPath18"><path
         d="M 0,2201.93 0,0 l 4211.7,0 0,2201.93 -4211.7,0 z"
         inkscape:connector-curvature="0"
         id="path20" /></clipPath></defs><g
     transform="matrix(1.25,0,0,-1.25,0,275.2375)"
     id="g10"><g
       transform="scale(0.1,0.1)"
       id="g12"><g
         id="g14"><g
           clip-path="url(#clipPath18)"
           id="g16"><path
             d="m 0,0 2201.95,0 0,277.691 -138.86,0 0,-138.851 -1924.242,0 0,1924.24 1924.242,0 0,-1129.549 138.86,0 0,1268.399 L 0,2201.93 0,0"
             inkscape:connector-curvature="0"
             id="path22"
             style="fill:#eb0a78;fill-opacity:1;fill-rule:nonzero;stroke:none" /><path
             d="m 483.828,345.82 138.887,0 0,519.66 -138.887,0 0,-519.66 z"
             inkscape:connector-curvature="0"
             id="path24"
             style="fill:#eb0a78;fill-opacity:1;fill-rule:nonzero;stroke:none" /><path
             d="m 977.695,624.922 -140.273,240.558 -145.879,0 0,-519.66 131.836,0 0,270 2.109,-0.039 159.2,-269.961 127.612,0 0,519.66 -132.515,0 0,-240.558 -2.09,0"
             inkscape:connector-curvature="0"
             id="path26"
             style="fill:#eb0a78;fill-opacity:1;fill-rule:nonzero;stroke:none" /><path
             d="m 1457.93,605.309 c 0,-131.168 -37.17,-139.528 -89.06,-139.528 l -48.42,0 0,273.449 42.77,0 c 58.95,0 94.71,-3.492 94.71,-133.921 z m -276.31,260.171 0,-519.66 174.61,0 c 164.81,0 242.64,41.379 242.64,260.168 0,214.59 -79.22,259.492 -244.73,259.492 l -172.52,0"
             inkscape:connector-curvature="0"
             id="path28"
             style="fill:#eb0a78;fill-opacity:1;fill-rule:nonzero;stroke:none" /><path
             d="m 1648.61,345.82 138.852,0 0,519.66 -138.852,0 0,-519.66 z"
             inkscape:connector-curvature="0"
             id="path30"
             style="fill:#eb0a78;fill-opacity:1;fill-rule:nonzero;stroke:none" /><path
             d="m 2934.71,462.238 c -76.43,0 -86.96,52.621 -86.96,138.153 0,84.859 10.53,137.461 86.96,137.461 75.76,0 86.27,-52.602 86.27,-137.461 0,-85.532 -10.51,-138.153 -86.27,-138.153 z m 0,409.551 c -193.54,0 -227.91,-126.91 -227.91,-266.48 0,-138.868 34.37,-265.797 227.91,-265.797 192.87,0 227.24,126.929 227.24,265.797 0,139.57 -33.69,266.48 -227.24,266.48"
             inkscape:connector-curvature="0"
             id="path32"
             style="fill:#eb0a78;fill-opacity:1;fill-rule:nonzero;stroke:none" /><path
             d="m 3908.07,462.238 c -76.45,0 -87,52.621 -87,138.153 0,84.859 10.55,137.461 87,137.461 75.68,0 86.23,-52.602 86.23,-137.461 0,-85.532 -10.55,-138.153 -86.23,-138.153 z m 0,409.551 c -193.58,0 -227.97,-126.91 -227.97,-266.48 0,-138.868 34.39,-265.797 227.97,-265.797 192.83,0 227.18,126.929 227.18,265.797 0,139.57 -33.65,266.48 -227.18,266.48"
             inkscape:connector-curvature="0"
             id="path34"
             style="fill:#eb0a78;fill-opacity:1;fill-rule:nonzero;stroke:none" /><path
             d="m 4180.04,354.781 c -20.74,0 -25.51,14.649 -25.51,33.731 0,19.199 4.77,33.828 25.51,33.828 20.76,0 25.62,-14.629 25.62,-33.828 0,-19.082 -4.86,-33.731 -25.62,-33.731 z m 0,73.258 c -25.33,0 -31.54,-17.109 -31.54,-39.527 0,-22.301 6.21,-39.313 31.54,-39.313 25.21,0 31.66,17.012 31.66,39.313 0,22.418 -6.45,39.527 -31.66,39.527"
             inkscape:connector-curvature="0"
             id="path36"
             style="fill:#eb0a78;fill-opacity:1;fill-rule:nonzero;stroke:none" /><path
             d="m 4181.82,389.641 -7.91,0 0,14.218 7.91,0 c 4.66,0 6.23,-1.968 6.23,-7.14 0,-5.098 -1.57,-7.078 -6.23,-7.078 z m 15.66,7.8 c 0,9.43 -3.1,14.84 -15.25,14.84 l -17.97,0 0,-47.011 9.65,0 0,16.601 6.13,0 7.26,-16.601 9.87,0 -7.89,17.539 c 6.33,2.07 8.2,7.261 8.2,14.632"
             inkscape:connector-curvature="0"
             id="path38"
             style="fill:#eb0a78;fill-opacity:1;fill-rule:nonzero;stroke:none" /><path
             d="m 2440.53,546.359 89.59,0 0,-9.078 c 0,-57.422 1.79,-82.75 -66.6,-82.75 -63.83,0 -85.59,29.449 -85.59,146.559 0,122.031 36.46,136.762 91.17,136.762 40.65,0 69.43,-10.512 93.28,-23.872 l 74.34,115.739 c -39.3,25.261 -96.8,42.07 -161.31,42.07 -179.51,0 -237.03,-86.269 -237.03,-266.48 0,-157.09 42.07,-265.797 212.48,-265.797 30.19,0 56.13,2.066 78.48,6.308 l 127.71,0 0,313.469 -201.19,0 -15.33,-112.93"
             inkscape:connector-curvature="0"
             id="path40"
             style="fill:#eb0a78;fill-opacity:1;fill-rule:nonzero;stroke:none" /><path
             d="m 3413.85,546.359 89.59,0 0,-9.078 c 0,-57.422 1.79,-82.75 -66.6,-82.75 -63.83,0 -85.59,29.449 -85.59,146.559 0,122.031 36.46,136.762 91.17,136.762 40.65,0 69.44,-10.512 93.28,-23.872 l 74.34,115.739 c -39.3,25.261 -96.8,42.07 -161.31,42.07 -179.51,0 -237.03,-86.269 -237.03,-266.48 0,-157.09 42.07,-265.797 212.48,-265.797 30.2,0 56.13,2.066 78.48,6.308 l 127.71,0 0,313.469 -201.19,0 -15.33,-112.93"
             inkscape:connector-curvature="0"
             id="path42"
             style="fill:#eb0a78;fill-opacity:1;fill-rule:nonzero;stroke:none" /><path
             d="m 2201.82,738.551 0,126.929 -345.04,0 0,-519.66 345.04,0 0,123.41 -208.97,0 0,77.879 137.25,0 16.76,123.391 -154.01,0 0,68.051 208.97,0"
             inkscape:connector-curvature="0"
             id="path44"
             style="fill:#eb0a78;fill-opacity:1;fill-rule:nonzero;stroke:none" /></g></g></g></g></svg>