<?xml version="1.0" encoding="UTF-8" standalone="no"?>
<!-- Generator: Adobe Illustrator 18.0.0, SVG Export Plug-In . SVG Version: 6.00 Build 0)  -->

<svg
   xmlns:dc="http://purl.org/dc/elements/1.1/"
   xmlns:cc="http://creativecommons.org/ns#"
   xmlns:rdf="http://www.w3.org/1999/02/22-rdf-syntax-ns#"
   xmlns:svg="http://www.w3.org/2000/svg"
   xmlns="http://www.w3.org/2000/svg"
   xmlns:sodipodi="http://sodipodi.sourceforge.net/DTD/sodipodi-0.dtd"
   xmlns:inkscape="http://www.inkscape.org/namespaces/inkscape"
   version="1.1"
   id="Layer_1"
   x="0px"
   y="0px"
   viewBox="0 0 713.36359 175.35128"
   enable-background="new 0 0 864 306.1"
   xml:space="preserve"
   inkscape:version="0.91 r13725"
   sodipodi:docname="logo-horizontal.svg"
   width="713.36359"
   height="175.35129"><metadata
     id="metadata71"><rdf:RDF><cc:Work
         rdf:about=""><dc:format>image/svg+xml</dc:format><dc:type
           rdf:resource="http://purl.org/dc/dcmitype/StillImage" /><dc:title></dc:title></cc:Work></rdf:RDF></metadata><defs
     id="defs69" /><sodipodi:namedview
     pagecolor="#ffffff"
     bordercolor="#666666"
     borderopacity="1"
     objecttolerance="10"
     gridtolerance="10"
     guidetolerance="10"
     inkscape:pageopacity="0"
     inkscape:pageshadow="2"
     inkscape:window-width="1153"
     inkscape:window-height="572"
     id="namedview67"
     showgrid="false"
     fit-margin-top="0"
     fit-margin-left="0"
     fit-margin-right="0"
     fit-margin-bottom="0"
     inkscape:zoom="0.46064815"
     inkscape:cx="356.7"
     inkscape:cy="87.726279"
     inkscape:window-x="0"
     inkscape:window-y="0"
     inkscape:window-maximized="0"
     inkscape:current-layer="Layer_1" /><g
     id="g3"
     transform="translate(-75.3,-65.425)"><g
       id="g5"><path
         d="m 178.4,207.7 c 3.5,-3.3 6.3,-7 8.4,-11.2 2.1,-4.2 3.3,-8.8 3.7,-13.6 0.3,-4.8 0.2,-5.6 0.2,-5.6 -1,-4.8 -2.1,-9.4 -2.3,-10.1 -0.2,-0.7 -3,-0.4 -6.1,0.8 -3.1,1.2 -9.3,3.9 -13.8,6.1 0,0 -0.8,0.4 -4.3,3.7 -2.8,2.7 -2.8,2.7 -2.8,2.7 -2.3,3.5 -4.2,2.3 -4.2,-2.7 l 0,-13 c 0,-4.9 3.5,-11 7.8,-13.5 l 24.9,-14.4 c 4.3,-2.5 8.2,-4.8 8.8,-5.1 0.5,-0.3 2.6,-1.5 3.3,-2 0.8,-0.5 1.4,3.2 1.4,8.2 l 0.1,70.5 c 0,4.9 -3.5,11 -7.8,13.5 L 165,239.7 c -4.3,2.5 -7.8,0.5 -7.8,-4.5 l 0,-7.5 c 0,-4.9 2,-9.7 4.5,-10.7 2.4,-0.9 8.1,-3.4 12.5,-5.6 -0.1,0 0.7,-0.4 4.2,-3.7 z"
         id="path7"
         inkscape:connector-curvature="0"
         style="fill:#498744" /><path
         d="m 225.9,115.8 c 4.3,-2.5 7.8,-0.5 7.8,4.5 l 0,70.6 c 0,4.9 -3.5,11 -7.8,13.5 l -9.5,5.5 c -4.3,2.5 -7.8,0.5 -7.8,-4.5 l -0.1,-70.5 c 0,-4.9 3.5,-11 7.8,-13.5 l 9.6,-5.6 z"
         id="path9"
         inkscape:connector-curvature="0"
         style="fill:#498744" /><path
         d="m 204,117.5 c -2,-1.6 -6.9,-5.2 -11,-8 0,0 -0.7,-0.5 -5.4,-1.9 -3.8,-1.2 -7.7,-1.7 -11.5,-1.7 -0.8,0 -1.6,0 -2.4,0.1 -4.7,0.3 -9.2,1.5 -13.6,3.6 -4.3,2.1 -5,2.7 -5,2.7 -3.7,3.3 -7.1,6.5 -7.6,7 -0.5,0.6 1.2,2.8 3.7,4.9 2.6,2.1 8,6.1 12.1,8.9 0,0 0.7,0.5 5.4,1.9 3.6,1.1 3.6,1.1 3.6,1.1 4,0.3 3.8,2.6 -0.5,5.1 l -9.6,5.6 c -4.3,2.5 -11.3,2.5 -15.6,0 l -31.2,-18 c -4.3,-2.5 -4.3,-6.5 0,-9 l 60.9,-35.2 c 4.3,-2.5 11.3,-2.5 15.6,0 l 31.1,18 c 4.3,2.5 4.3,6.5 0,9 l -7.7,4.5 c -4.2,2.3 -9.3,3 -11.3,1.4 z"
         id="path11"
         inkscape:connector-curvature="0"
         style="fill:#afcb47" /><path
         d="m 85.7,111.5 c -4.3,-2.5 -4.3,-6.5 0,-9 l 61,-35.2 c 4.3,-2.5 11.3,-2.5 15.6,0 l 8.9,5.1 c 4.3,2.5 4.3,6.5 0,9 l -60.9,35.2 c -4.3,2.5 -11.3,2.5 -15.6,0 l -9,-5.1 z"
         id="path13"
         inkscape:connector-curvature="0"
         style="fill:#afcb47" /><path
         d="m 151.9,235.1 c 0,4.9 -3.5,7 -7.8,4.5 l -61,-35.2 c -4.3,-2.5 -7.8,-8.5 -7.8,-13.5 l 0,-9.6 c 0,-4.9 3.5,-7 7.8,-4.5 l 61,35.1 c 4.3,2.5 7.8,8.5 7.8,13.5 l 0,9.7 z"
         id="path15"
         inkscape:connector-curvature="0"
         style="fill:#7eb446" /><path
         d="m 97.1,129.3 c -0.4,2.6 -1.1,8.8 -1.4,13.7 0,0 -0.1,0.9 1,5.6 1.1,4.7 2.9,9 5.5,12.9 2.6,3.9 5.9,7.3 9.9,9.9 4,2.7 4.8,3 4.8,3 4.7,1.5 9.2,2.9 9.9,3.1 0.7,0.2 1.8,-2.4 2.4,-5.7 0.6,-3.3 1.3,-10 1.6,-15 0,0 0.1,-0.9 -1,-5.6 -0.9,-3.9 -0.9,-3.9 -0.9,-3.9 -1.9,-3.8 0.1,-4.9 4.3,-2.4 l 10.9,6.3 c 4.3,2.5 7.8,8.5 7.8,13.5 l 0,36.7 c 0,4.9 -3.5,7 -7.8,4.5 l -61,-35.1 c -4.3,-2.5 -7.8,-8.5 -7.8,-13.5 l 0,-36.8 c 0,-4.9 3.5,-7 7.8,-4.5 l 6.9,4 c 4.3,2.5 7.5,6.6 7.1,9.3 z"
         id="path17"
         inkscape:connector-curvature="0"
         style="fill:#7eb446" /><path
         d="m 194.1,128.1 c -3.8,1.7 -7.7,2.8 -11.7,3.1 -4,0.3 -8,-0.1 -12,-1.3 -4,-1.2 -7.7,-3.2 -11,-6 l -5,-4.1 c 2.5,-2.3 5.2,-4.2 8.2,-5.6 3.7,-1.8 7.6,-2.8 11.6,-3.1 4,-0.3 8.1,0.2 12.1,1.5 4,1.2 7.7,3.2 11,6 l 4.9,4.1 c -1.4,1.4 -3,2.6 -4.6,3.6 l -2.1,1.2 c -0.6,0.2 -1,0.4 -1.4,0.6 z"
         id="path19"
         inkscape:connector-curvature="0"
         style="opacity:0.8;fill:#498744" /><path
         d="m 197.5,126.3 c 0,0 0,0 0,0 l -2.1,1.2 c 0,0 0,0 0,0 l 2.1,-1.2 z"
         id="path21"
         inkscape:connector-curvature="0"
         style="fill:#51924b" /><path
         d="m 195.4,127.5 2.1,-1.2 c -0.7,0.4 -1.4,0.8 -2.1,1.2 z"
         id="path23"
         inkscape:connector-curvature="0"
         style="fill:#51924b" /><path
         d="m 157.4,203 c 0.4,-4.1 1.4,-8.1 3.2,-11.7 1.7,-3.6 4.1,-6.9 7.1,-9.7 3,-2.8 6.6,-5 10.7,-6.6 l 6.1,-2.3 c 0.8,3.3 1,6.6 0.8,9.9 -0.3,4.1 -1.4,8 -3.1,11.6 -1.8,3.6 -4.3,6.9 -7.3,9.7 -3,2.8 -6.6,5 -10.7,6.5 l -6,2.2 c -0.8,-3.2 -1.1,-6.4 -0.8,-9.6 z"
         id="path25"
         inkscape:connector-curvature="0"
         style="opacity:0.8;fill:#7eb446" /><path
         d="m 124.7,152.4 c 0.9,4 1.1,8.2 0.3,12.5 l -1.1,6.4 c -3.2,-1 -6.2,-2.4 -8.9,-4.3 -3.4,-2.3 -6.3,-5.2 -8.5,-8.5 -2.2,-3.4 -3.8,-7.1 -4.8,-11.2 -0.9,-4 -1.1,-8.2 -0.3,-12.5 l 1.1,-6.3 c 3.2,0.9 6.2,2.3 8.8,4.2 3.4,2.4 6.3,5.3 8.6,8.6 2.2,3.3 3.8,7 4.8,11.1 z"
         id="path27"
         inkscape:connector-curvature="0"
         style="opacity:0.8;fill:#afcb47" /></g><g
       id="g29"><g
         id="g31"><polygon
           points="374.6,168.2 345.3,168.2 333.1,193 386.8,193 "
           id="polygon33"
           style="fill:#498744" /><path
           d="m 376.7,104.8 -13.8,28 15,30.3 1.3,2.6 1.3,2.6 12.1,24.5 1.2,2.4 1.2,2.4 9.1,18.5 c 1,2 3.1,3.3 5.3,3.3 0.9,0 1.7,-0.2 2.5,-0.6 l 11.8,-5.7 c 1.4,-0.7 2.4,-1.9 2.9,-3.3 0.5,-1.5 0.4,-3.1 -0.3,-4.4 L 376.7,104.8 Z"
           id="path35"
           inkscape:connector-curvature="0"
           style="fill:#498744" /><path
           d="m 340.8,165.6 1.3,-2.6 15,-30.3 1.5,-2.9 1.5,-2.9 12.7,-25.8 c 0.5,-1 0.7,-2.2 0.5,-3.3 0,-0.4 -0.1,-0.8 -0.3,-1.2 -0.3,-0.9 -0.8,-1.6 -1.4,-2.2 -0.4,-0.5 -1,-0.8 -1.5,-1.1 L 360,88.4 358.3,87.6 c -0.5,-0.2 -1,-0.4 -1.6,-0.5 -0.3,-0.1 -0.6,-0.1 -1,-0.1 -2.2,0 -4.2,1.2 -5.2,3.1 0,0 -0.1,0.1 -0.1,0.1 l -2.1,4.2 -1.7,3.4 -2,4 -1.5,3 -28.9,58.5 -1.7,3.4 -4.4,8.9 -2.6,5.3 -12,24.2 c -0.7,1.4 -0.8,3 -0.3,4.4 0.5,1.5 1.5,2.7 2.9,3.3 l 11.8,5.7 c 0.8,0.4 1.7,0.6 2.5,0.6 2.2,0 4.3,-1.3 5.3,-3.3 l 8.7,-17.6 1.3,-2.6 1.3,-2.6 12.2,-24.8 1.6,-2.6 z"
           id="path37"
           inkscape:connector-curvature="0"
           style="fill:#498744" /></g><g
         id="g39"><path
           d="m 494.4,153.2 -19.3,16.7 48.5,49 c 1.1,1.1 2.6,1.7 4.2,1.7 1.6,0 3,-0.6 4.1,-1.7 l 9.8,-9.7 c 1.1,-1.1 1.7,-2.5 1.7,-4.1 0,-1.6 -0.6,-3 -1.7,-4.1 l -47.3,-47.8 z"
           id="path41"
           inkscape:connector-curvature="0"
           style="fill:#498744" /><path
           d="m 492.7,147.8 2,-1.7 46,-39.8 c 2.4,-2.1 2.7,-5.8 0.6,-8.3 l -8.9,-10.5 c -1.1,-1.3 -2.7,-2 -4.4,-2 -1.4,0 -2.7,0.5 -3.8,1.4 l -49.2,42.5 0,0.3 0,2.6 0,2.6 0,28 15.7,-13.5 2,-1.6 z"
           id="path43"
           inkscape:connector-curvature="0"
           style="fill:#498744" /><path
           d="m 464,88 -13.1,0 c -3.2,0 -5.8,2.6 -5.8,5.8 l 0,54.7 0,3.4 0,3.7 0,6.9 0,4.1 0,4 0,43.5 c 0,3.2 2.6,5.8 5.8,5.8 l 13.1,0 c 3.2,0 5.8,-2.6 5.8,-5.8 l 0,-39.6 0,-2.5 0,-1 0,-2.7 0,-0.7 0,-3 0,-28.1 0,-2.5 0,-0.7 0,-2.8 0,-0.1 0,-3.4 0,-33.2 C 469.9,90.6 467.3,88 464,88 Z"
           id="path45"
           inkscape:connector-curvature="0"
           style="fill:#498744" /></g><g
         id="g47"><path
           d="m 650.2,87.1 -57,0 c 1.1,1.7 1.7,3.7 1.7,5.8 l 0,18.9 55.3,0 c 3.2,0 5.8,-2.6 5.8,-5.8 l 0,-13.1 c 0.1,-3.2 -2.5,-5.8 -5.8,-5.8 z"
           id="path49"
           inkscape:connector-curvature="0"
           style="fill:#498744" /><g
           id="g51"><path
             d="m 650.2,194.3 -55.3,0 0,18.9 c 0,2.1 -0.6,4.1 -1.7,5.8 l 57,0 c 3.2,0 5.8,-2.6 5.8,-5.8 l 0,-13.1 c 0.1,-3.2 -2.5,-5.8 -5.8,-5.8 z"
             id="path53"
             inkscape:connector-curvature="0"
             style="fill:#498744" /><path
             d="m 650.2,140.7 -55.3,0 0,24.8 55.3,0 c 3.2,0 5.8,-2.6 5.8,-5.8 l 0,-13.1 c 0.1,-3.3 -2.5,-5.9 -5.8,-5.9 z"
             id="path55"
             inkscape:connector-curvature="0"
             style="fill:#498744" /><path
             d="m 583.9,87.1 -13.1,0 c -3.2,0 -5.8,2.6 -5.8,5.8 l 0,13.1 0,6.1 0,3.3 0,21.7 0,3.3 0,6.1 0,13.1 0,6.1 0,3.3 0,21.7 0,3.3 0,6.1 0,13.1 c 0,3.2 2.6,5.8 5.8,5.8 l 13.1,0 c 3.2,0 5.8,-2.6 5.8,-5.8 l 0,-18.9 0,-2.6 0,-2.7 0,-18.4 0,-2.6 0,-2.6 0,-24.8 0,-2.6 0,-2.6 0,-18.4 0,-2.6 0,-2.6 0,-18.9 c 0,-3.2 -2.6,-5.8 -5.8,-5.8 z"
             id="path57"
             inkscape:connector-curvature="0"
             style="fill:#498744" /></g></g><g
         id="g59"><path
           d="m 787.9,204.1 -17.3,-30.7 c -11.4,8 -22.6,8.8 -23.1,8.8 -0.1,0 -0.2,0 -0.3,0 l 19.2,34.1 c 1,1.8 3,3 5.1,3 1,0 2,-0.3 2.8,-0.7 l 11.4,-6.4 c 2.8,-1.7 3.8,-5.3 2.2,-8.1 z"
           id="path61"
           inkscape:connector-curvature="0"
           style="fill:#498744" /><path
           d="m 770.2,167.2 c 0.7,-0.5 1.4,-1.1 2,-1.7 0.4,-0.4 0.8,-0.7 1.2,-1.1 5.7,-5.6 12.5,-15.8 12.5,-32.3 0,-12.9 -4.3,-23.9 -12.3,-31.9 C 761.4,88.1 748.9,87.4 748.8,87.4 744.2,87.2 736.6,87.1 732,87.1 l -22.4,0 c 1,1.7 1.6,3.6 1.6,5.8 l 0,19 20.8,0 c 4.7,0 12.4,0.4 17.1,0.9 0.9,0.1 2.6,0.7 6.9,5 3.4,3.3 5,8 5,14.3 0,6.5 -1.7,11.3 -5.1,14.7 -0.2,0.2 -0.3,0.3 -0.5,0.5 -3.7,3.4 -8.6,4.7 -12.2,5.2 -1.9,0.3 -3.4,0.3 -4.3,0.3 l -0.2,0 c -0.2,0 -4.2,0 -8.8,0 l -18.9,0 0,24.8 27.5,0 0.1,0 c 0.3,0 1.3,-0.1 2.8,-0.2 0.8,-0.1 1.8,-0.1 2.9,-0.2 0.9,-0.1 1.8,-0.1 2.8,-0.2 0.1,0 10.6,-0.8 20.9,-8.2 0.8,-0.5 1.5,-1.1 2.2,-1.6 z"
           id="path63"
           inkscape:connector-curvature="0"
           style="fill:#498744" /><path
           d="m 700.9,87 c -0.3,0 -0.6,-0.1 -0.9,-0.1 l -13,0 c -3.2,0 -5.8,2.6 -5.8,5.8 l 0,18.8 0,3.5 0,34.6 0,3.5 0,24.3 0,3.5 0,32.1 c 0,3.2 2.6,5.8 5.8,5.8 l 13.1,0 c 3.2,0 5.8,-2.6 5.8,-5.8 l 0,-30.2 0,-2.6 0,-2.6 0,-24.8 0,-2.6 0,-2.6 0,-30.6 0,-2.6 0,-2.6 0,-19 c 0,-3 -2.2,-5.4 -5,-5.8 z"
           id="path65"
           inkscape:connector-curvature="0"
           style="fill:#498744" /></g></g></g></svg>