<?xml version="1.0" encoding="UTF-8" standalone="no"?>
<svg
   xmlns:osb="http://www.openswatchbook.org/uri/2009/osb"
   xmlns:dc="http://purl.org/dc/elements/1.1/"
   xmlns:cc="http://creativecommons.org/ns#"
   xmlns:rdf="http://www.w3.org/1999/02/22-rdf-syntax-ns#"
   xmlns:svg="http://www.w3.org/2000/svg"
   xmlns="http://www.w3.org/2000/svg"
   xmlns:xlink="http://www.w3.org/1999/xlink"
   xmlns:sodipodi="http://sodipodi.sourceforge.net/DTD/sodipodi-0.dtd"
   xmlns:inkscape="http://www.inkscape.org/namespaces/inkscape"
   xml:space="preserve"
   enable-background="new 0 0 100 100"
   viewBox="0 0 100 100"
   height="100px"
   width="100px"
   y="0px"
   x="0px"
   id="Layer_1"
   version="1.1"
   inkscape:version="0.91 r13725"
   sodipodi:docname="aker_kit.svg"><sodipodi:namedview
     pagecolor="#ffffff"
     bordercolor="#666666"
     borderopacity="1"
     objecttolerance="10"
     gridtolerance="10"
     guidetolerance="10"
     inkscape:pageopacity="0"
     inkscape:pageshadow="2"
     inkscape:window-width="1170"
     inkscape:window-height="579"
     id="namedview13"
     showgrid="false"
     inkscape:zoom="2.36"
     inkscape:cx="-43.855932"
     inkscape:cy="33.050847"
     inkscape:window-x="0"
     inkscape:window-y="0"
     inkscape:window-maximized="0"
     inkscape:current-layer="Layer_1" /><metadata
     id="metadata9"><rdf:RDF><cc:Work
         rdf:about=""><dc:format>image/svg+xml</dc:format><dc:type
           rdf:resource="http://purl.org/dc/dcmitype/StillImage" /><dc:title /></cc:Work></rdf:RDF></metadata><defs
     id="defs7"><linearGradient
       osb:paint="solid"
       id="linearGradient4573"><stop
         id="stop4575"
         offset="0"
         style="stop-color:#000000;stop-opacity:1;" /></linearGradient><linearGradient
       id="linearGradient4567"><stop
         id="stop4555"
         offset="0"
         style="stop-color:#498744;stop-opacity:1" /><stop
         id="stop4557"
         offset="1"
         style="stop-color:#7eb446;stop-opacity:1" /></linearGradient><linearGradient
       gradientUnits="userSpaceOnUse"
       y2="-0.033394534"
       x2="49.416084"
       y1="99.74057"
       x1="49.685051"
       id="linearGradient4559"
       xlink:href="#linearGradient4567" /></defs><circle
     r="30"
     cy="34.345039"
     cx="50"
     id="path3561"
     style="opacity:1;fill:#ffffff;fill-opacity:1;fill-rule:nonzero;stroke:none;stroke-width:5.99881887;stroke-linecap:butt;stroke-linejoin:miter;stroke-miterlimit:4;stroke-dasharray:none;stroke-opacity:1" /><path
     style="fill:url(#linearGradient4559);stroke:#000000;fill-opacity:1;stroke-width:0.5;stroke-miterlimit:4;stroke-dasharray:none;stroke-opacity:1"
     id="path3"
     d="M 50.001953 0 C 30.108953 0 13.980469 17.104531 13.980469 36.019531 C 13.980469 62.663531 49.260953 99.667094 50.001953 99.996094 C 50.740953 100.32509 86.019531 62.663531 86.019531 36.019531 C 86.019531 16.118531 69.894953 -4.7369516e-15 50.001953 0 z M 50 8.6269531 A 26.718199 26.718199 0 0 1 76.71875 35.34375 A 26.718199 26.718199 0 0 1 50 62.0625 A 26.718199 26.718199 0 0 1 23.28125 35.34375 A 26.718199 26.718199 0 0 1 50 8.6269531 z " /><g
     id="g3430"
     transform="matrix(0.18263622,0,0,0.18263622,11.125881,-0.48916578)"
     style="fill:#000000"><path
       id="path3432"
       d="m 247.3,272.7 c 5,-4.7 9.1,-10.1 12.1,-16.2 3,-6.1 4.8,-12.6 5.3,-19.5 0.5,-6.9 0.2,-8.1 0.2,-8.1 -1.5,-7 -3,-13.5 -3.3,-14.6 -0.3,-1 -4.3,-0.5 -8.8,1.2 -4.5,1.7 -13.4,5.6 -19.8,8.7 0,0 -1.2,0.6 -6.2,5.3 -4.1,3.8 -4.1,3.8 -4.1,3.8 -3.3,5 -6.1,3.3 -6.1,-3.9 l 0,-18.7 c 0,-7.1 5,-15.9 11.2,-19.5 l 35.8,-20.8 c 6.2,-3.6 11.9,-6.9 12.6,-7.3 0.8,-0.4 3.7,-2.2 4.8,-2.8 1.1,-0.6 2,4.7 2,11.8 l 0.1,101.6 c 0,7.1 -5,15.9 -11.2,19.4 l -44.2,25.5 c -6.2,3.6 -11.2,0.6 -11.2,-6.5 l 0,-10.8 c 0,-7.1 2.9,-14 6.4,-15.4 3.5,-1.3 11.7,-4.9 18.1,-8.1 0.1,0.3 1.2,-0.3 6.3,-5.1 z"
       inkscape:connector-curvature="0"
       style="fill:#000000" /><path
       id="path3434"
       d="m 315.7,140.4 c 6.2,-3.6 11.2,-0.7 11.2,6.5 l 0,101.8 c 0,7.1 -5,15.9 -11.2,19.4 L 302,276 c -6.2,3.6 -11.2,0.6 -11.2,-6.5 l -0.1,-101.6 c 0,-7.1 5,-15.9 11.2,-19.5 l 13.8,-8 z"
       inkscape:connector-curvature="0"
       style="fill:#000000" /><path
       id="path3436"
       d="m 284.2,142.8 c -2.8,-2.3 -9.9,-7.5 -15.8,-11.5 0,0 -1.1,-0.7 -7.7,-2.7 -5.5,-1.7 -11.1,-2.5 -16.6,-2.5 -1.1,0 -2.3,0 -3.4,0.1 -6.7,0.4 -13.3,2.2 -19.6,5.2 -6.2,3 -7.2,3.9 -7.2,3.9 -5.3,4.8 -10.2,9.3 -11,10.1 -0.7,0.8 1.7,4 5.4,7 3.7,3.1 11.6,8.8 17.5,12.8 0,0 1.1,0.7 7.7,2.7 5.2,1.6 5.2,1.6 5.2,1.6 5.7,0.4 5.4,3.7 -0.8,7.3 l -13.9,8.1 c -6.2,3.6 -16.3,3.6 -22.4,0 l -45,-26 c -6.2,-3.6 -6.2,-9.4 0,-13 l 87.8,-50.8 c 6.2,-3.6 16.3,-3.6 22.4,0 l 44.8,25.9 c 6.2,3.6 6.2,9.4 0,13 l -11.1,6.4 c -6.1,3.7 -13.5,4.7 -16.3,2.4 z"
       inkscape:connector-curvature="0"
       style="fill:#000000" /><path
       id="path3438"
       d="m 113.8,134.2 c -6.2,-3.6 -6.2,-9.4 0,-13 l 87.8,-50.7 c 6.2,-3.6 16.3,-3.6 22.4,0 l 12.8,7.4 c 6.2,3.6 6.2,9.4 0,13 l -87.7,50.8 c -6.2,3.6 -16.3,3.6 -22.4,0 l -12.9,-7.5 z"
       inkscape:connector-curvature="0"
       style="fill:#000000" /><path
       id="path3440"
       d="m 209.1,312.3 c 0,7.1 -5,10 -11.2,6.5 L 110,268 c -6.2,-3.6 -11.2,-12.3 -11.2,-19.4 l 0,-13.9 c 0,-7.1 5.1,-10 11.2,-6.5 l 87.8,50.6 c 6.2,3.6 11.2,12.3 11.2,19.4 l 0,14.1 z"
       inkscape:connector-curvature="0"
       style="fill:#000000" /><path
       id="path3442"
       d="m 130.1,159.8 c -0.6,3.8 -1.6,12.6 -2.1,19.8 0,0 -0.1,1.3 1.5,8.1 1.6,6.7 4.2,13 7.9,18.6 3.7,5.6 8.5,10.4 14.3,14.3 5.7,3.9 6.9,4.3 6.9,4.3 6.8,2.2 13.2,4.2 14.3,4.4 1.1,0.2 2.6,-3.4 3.4,-8.2 0.8,-4.7 1.9,-14.4 2.4,-21.6 0,0 0.1,-1.3 -1.5,-8.1 -1.3,-5.6 -1.3,-5.6 -1.3,-5.6 -2.7,-5.5 0.1,-7 6.3,-3.5 l 15.7,9.1 c 6.2,3.6 11.2,12.3 11.2,19.4 l 0,52.9 c 0,7.1 -5.1,10 -11.2,6.5 L 110,219.6 C 103.8,216 98.8,207.3 98.8,200.2 l 0,-53 c 0,-7.1 5,-10 11.2,-6.5 l 10,5.8 c 6.2,3.5 10.7,9.5 10.1,13.3 z"
       inkscape:connector-curvature="0"
       style="fill:#000000" /><path
       id="path3444"
       d="m 269.9,158.1 c -5.4,2.5 -11.1,4 -16.9,4.5 -5.8,0.5 -11.6,-0.1 -17.3,-1.9 -5.7,-1.7 -11,-4.6 -15.9,-8.6 l -7.2,-6 c 3.6,-3.3 7.5,-6 11.7,-8.1 5.3,-2.6 11,-4.1 16.7,-4.5 5.8,-0.4 11.6,0.3 17.4,2.1 5.7,1.7 11,4.6 15.9,8.6 l 7.1,5.9 c -2.1,2 -4.3,3.7 -6.6,5.2 l -3.1,1.8 c -0.6,0.4 -1.2,0.8 -1.8,1 z"
       inkscape:connector-curvature="0"
       style="opacity:0.8;fill:#000000" /><path
       id="path3446"
       d="m 274.8,155.4 c 0,0 0,0 0,0 l -3.1,1.8 c 0,0 0,0 0,0 l 3.1,-1.8 z"
       inkscape:connector-curvature="0"
       style="fill:#000000" /><path
       id="path3448"
       d="m 271.7,157.2 3,-1.8 c -0.9,0.7 -2,1.3 -3,1.8 z"
       inkscape:connector-curvature="0"
       style="fill:#000000" /><path
       id="path3450"
       d="m 217.1,266 c 0.6,-6 2.1,-11.6 4.5,-16.9 2.5,-5.2 5.9,-9.9 10.3,-14 4.3,-4.1 9.5,-7.3 15.4,-9.4 l 8.8,-3.3 c 1.1,4.7 1.5,9.5 1.1,14.2 -0.4,5.9 -1.9,11.6 -4.5,16.7 -2.6,5.2 -6.1,9.9 -10.5,14 -4.3,4.1 -9.5,7.3 -15.4,9.4 l -8.6,3.2 c -1.2,-4.7 -1.6,-9.3 -1.1,-13.9 z"
       inkscape:connector-curvature="0"
       style="opacity:0.8;fill:#000000" /><path
       id="path3452"
       d="m 169.8,193.1 c 1.4,5.8 1.5,11.9 0.5,18 l -1.6,9.2 c -4.6,-1.4 -9,-3.5 -12.9,-6.1 -4.9,-3.3 -9,-7.5 -12.2,-12.3 -3.2,-4.8 -5.5,-10.3 -6.9,-16.1 -1.4,-5.8 -1.5,-11.9 -0.5,-18 l 1.5,-9.1 c 4.6,1.3 8.9,3.3 12.6,6 4.9,3.5 9,7.6 12.3,12.4 3.5,4.8 5.9,10.2 7.2,16 z"
       inkscape:connector-curvature="0"
       style="opacity:0.8;fill:#000000" /></g></svg>