<?xml version="1.0" encoding="UTF-8" standalone="no"?>
<svg
   xmlns:dc="http://purl.org/dc/elements/1.1/"
   xmlns:cc="http://creativecommons.org/ns#"
   xmlns:rdf="http://www.w3.org/1999/02/22-rdf-syntax-ns#"
   xmlns:svg="http://www.w3.org/2000/svg"
   xmlns="http://www.w3.org/2000/svg"
   xmlns:sodipodi="http://sodipodi.sourceforge.net/DTD/sodipodi-0.dtd"
   xmlns:inkscape="http://www.inkscape.org/namespaces/inkscape"
   version="1.1"
   id="Layer_1"
   x="0px"
   y="0px"
   width="96"
   height="96"
   viewBox="0 0 96 96"
   enable-background="new 0 0 100 100"
   xml:space="preserve"
   inkscape:version="0.91 r13725"
   sodipodi:docname="beekeeping_equipment.svg"><metadata
     id="metadata13"><rdf:RDF><cc:Work
         rdf:about=""><dc:format>image/svg+xml</dc:format><dc:type
           rdf:resource="http://purl.org/dc/dcmitype/StillImage" /><dc:title></dc:title></cc:Work></rdf:RDF></metadata><defs
     id="defs11" /><sodipodi:namedview
     pagecolor="#ffffff"
     bordercolor="#666666"
     borderopacity="1"
     objecttolerance="10"
     gridtolerance="10"
     guidetolerance="10"
     inkscape:pageopacity="0"
     inkscape:pageshadow="2"
     inkscape:window-width="1081"
     inkscape:window-height="585"
     id="namedview9"
     showgrid="false"
     inkscape:zoom="2.36"
     inkscape:cx="-2.9661017"
     inkscape:cy="50"
     inkscape:window-x="0"
     inkscape:window-y="0"
     inkscape:window-maximized="0"
     inkscape:current-layer="Layer_1" /><g
     id="g3"
     transform="matrix(1.0422457,0,0,1.0422457,-4.112285,-4.112285)"><path
       d="m 93.176,51.406 -12.729,-22.5 -21.708,0 L 46.421,7.812 20.959,7.812 8.23,29.609 19.033,48.107 6.824,69.688 l 12.729,22.5 25.46,0 10.345,-18.281 25.088,0 12.73,-22.501 z m -69.795,-39.375 20.617,0 10.268,17.578 -10.268,17.579 -20.617,0 L 13.115,29.609 23.381,12.031 Z m 19.173,75.938 -20.54,0 -10.343,-18.281 10.343,-18.281 20.242,0 10.492,18.545 -10.194,18.017 z M 57.745,69.688 47.252,51.143 57.446,33.125 l 20.539,0 10.342,18.281 -10.342,18.282 -20.24,0 z"
       id="path5"
       inkscape:connector-curvature="0" /><polygon
       points="60.605,64.062 74.826,64.062 82.083,51.406 75.021,38.75 60.605,38.75 53.444,51.406 "
       id="polygon7" /></g></svg>