<?xml version="1.0" encoding="UTF-8" standalone="no"?>
<svg
   xmlns:osb="http://www.openswatchbook.org/uri/2009/osb"
   xmlns:dc="http://purl.org/dc/elements/1.1/"
   xmlns:cc="http://creativecommons.org/ns#"
   xmlns:rdf="http://www.w3.org/1999/02/22-rdf-syntax-ns#"
   xmlns:svg="http://www.w3.org/2000/svg"
   xmlns="http://www.w3.org/2000/svg"
   xmlns:xlink="http://www.w3.org/1999/xlink"
   xml:space="preserve"
   enable-background="new 0 0 100 100"
   viewBox="0 0 100 100"
   height="100px"
   width="100px"
   y="0px"
   x="0px"
   id="Layer_1"
   version="1.1"><metadata
     id="metadata9"><rdf:RDF><cc:Work
         rdf:about=""><dc:format>image/svg+xml</dc:format><dc:type
           rdf:resource="http://purl.org/dc/dcmitype/StillImage" /><dc:title></dc:title></cc:Work></rdf:RDF></metadata><defs
     id="defs7"><linearGradient
       osb:paint="solid"
       id="linearGradient4573"><stop
         id="stop4575"
         offset="0"
         style="stop-color:#000000;stop-opacity:1;" /></linearGradient><linearGradient
       id="linearGradient4567"><stop
         id="stop4555"
         offset="0"
         style="stop-color:#e3443c;stop-opacity:1" /><stop
         id="stop4557"
         offset="1"
         style="stop-color:#fb7468;stop-opacity:1" /></linearGradient><linearGradient
       gradientUnits="userSpaceOnUse"
       y2="-0.033394534"
       x2="49.416084"
       y1="99.74057"
       x1="49.685051"
       id="linearGradient4559"
       xlink:href="#linearGradient4567" /></defs><circle
     r="30"
     cy="34.345039"
     cx="50"
     id="path3561"
     style="opacity:1;fill:#ffffff;fill-opacity:1;fill-rule:nonzero;stroke:none;stroke-width:5.99881887;stroke-linecap:butt;stroke-linejoin:miter;stroke-miterlimit:4;stroke-dasharray:none;stroke-opacity:1" /><path
     style="fill:url(#linearGradient4559);stroke:#000000;fill-opacity:1;stroke-width:0.5;stroke-miterlimit:4;stroke-dasharray:none;stroke-opacity:1"
     id="path3"
     d="M 50.001953 0 C 30.108953 0 13.980469 17.104531 13.980469 36.019531 C 13.980469 62.663531 49.260953 99.667094 50.001953 99.996094 C 50.740953 100.32509 86.019531 62.663531 86.019531 36.019531 C 86.019531 16.118531 69.894953 -4.7369516e-15 50.001953 0 z M 50 8.6269531 A 26.718199 26.718199 0 0 1 76.71875 35.34375 A 26.718199 26.718199 0 0 1 50 62.0625 A 26.718199 26.718199 0 0 1 23.28125 35.34375 A 26.718199 26.718199 0 0 1 50 8.6269531 z " /><g
     transform="matrix(0.43407438,0,0,0.43407438,28.794934,13.76741)"
     id="g4332"><path
       d="m 73.872227,38.75 -14.416,0 -7.161,12.656 7.161,12.656 14.221,0 7.257,-12.656 z m 18.155,12.656 -12.729,-22.5 -21.708,0 -12.318,-21.094 -25.462,0 L 7.0812268,29.609 17.884227,48.107 5.6752268,69.688 l 12.7290002,22.5 25.46,0 10.345,-18.281 25.088,0 12.73,-22.501 z m -69.795,-39.375 20.617,0 10.268,17.578 -10.268,17.579 -20.617,0 -10.266,-17.579 10.266,-17.578 z m 19.173,75.938 -20.54,0 -10.343,-18.281 10.343,-18.281 20.242,0 10.492,18.545 -10.194,18.017 z m 15.191,-18.281 -10.493,-18.545 10.194,-18.018 20.539,0 10.342,18.281 -10.342,18.282 -20.24,0 z"
       id="polygon4336" /></g></svg>