<?xml version="1.0" encoding="UTF-8" standalone="no"?>
<!-- Generator: Adobe Illustrator 15.1.0, SVG Export Plug-In . SVG Version: 6.00 Build 0)  -->

<svg
   xmlns:dc="http://purl.org/dc/elements/1.1/"
   xmlns:cc="http://creativecommons.org/ns#"
   xmlns:rdf="http://www.w3.org/1999/02/22-rdf-syntax-ns#"
   xmlns:svg="http://www.w3.org/2000/svg"
   xmlns="http://www.w3.org/2000/svg"
   xmlns:sodipodi="http://sodipodi.sourceforge.net/DTD/sodipodi-0.dtd"
   xmlns:inkscape="http://www.inkscape.org/namespaces/inkscape"
   version="1.1"
   id="Layer_1"
   x="0px"
   y="0px"
   width="96"
   height="96"
   viewBox="0 0 96 96.000002"
   enable-background="new 0 0 100 63.6"
   xml:space="preserve"
   inkscape:version="0.91 r13725"
   sodipodi:docname="bees.svg"><metadata
     id="metadata9"><rdf:RDF><cc:Work
         rdf:about=""><dc:format>image/svg+xml</dc:format><dc:type
           rdf:resource="http://purl.org/dc/dcmitype/StillImage" /><dc:title></dc:title></cc:Work></rdf:RDF></metadata><defs
     id="defs7" /><sodipodi:namedview
     pagecolor="#ffffff"
     bordercolor="#666666"
     borderopacity="1"
     objecttolerance="10"
     gridtolerance="10"
     guidetolerance="10"
     inkscape:pageopacity="0"
     inkscape:pageshadow="2"
     inkscape:window-width="1015"
     inkscape:window-height="601"
     id="namedview5"
     showgrid="false"
     inkscape:zoom="3.7106919"
     inkscape:cx="16.31356"
     inkscape:cy="42.57966"
     inkscape:window-x="0"
     inkscape:window-y="0"
     inkscape:window-maximized="0"
     inkscape:current-layer="Layer_1" /><path
     d="m 92.471807,32.248743 c -2.845803,-1.129502 -5.941806,-1.408502 -8.980209,-1.467002 -1.878301,0.2646 -3.726903,0.733501 -5.605205,0.968401 0.0891,0.0585 0.1917,0.117 0.2799,0.1764 -1.997102,0.322201 -3.757503,1.364402 -5.708705,1.818902 -2.817903,0.718201 -5.310905,2.259902 -8.128808,2.934903 -0.675,0.1314 -1.291501,0.4986 -1.952102,0.675 -0.7632,0.220501 -1.437301,0.704701 -2.244602,0.821701 -0.719101,0.1026 -1.260901,0.719101 -2.009702,0.703801 -0.2061,-0.279 -0.4689,-0.630901 -0.3087,-0.982801 0.2061,-0.542701 0.2502,-1.276201 0.866701,-1.481401 1.275301,-0.498601 2.435402,-1.261802 3.565803,-2.039402 0.513001,-0.630901 1.158301,-1.130402 1.862102,-1.526402 0.4266,-0.5571 0.4554,-1.320301 0.807301,-1.922402 0.5571,-1.027801 0.6309,-2.201402 0.923401,-3.316503 0.0585,-0.3078 -0.102601,-0.6012 -0.175501,-0.909901 1.833302,-1.129501 3.727804,-2.201402 5.253305,-3.756603 -0.5283,-0.307801 -0.9837,-0.703801 -1.511101,-1.012501 -0.528301,0.5274 -1.160101,0.924301 -1.849502,1.217701 -0.924301,0.6894 -2.201402,0.894601 -2.890803,1.877402 -0.2619,0.7353 -0.9081,1.160101 -1.363501,1.747801 -0.5724,1.041301 -0.513,2.274302 -0.5868,3.419104 -0.836101,0.2934 -1.849502,0.3222 -2.435403,1.055701 -0.6597,0.8073 -1.467001,1.453501 -2.214902,2.171702 -0.2799,0.3816 -0.4266,0.837 -0.6318,1.261801 -0.865801,-0.3519 -1.789202,-0.1764 -2.583003,0.2637 l -0.4383,-0.3528 c 0.4833,-0.747901 1.143901,-1.555202 0.997201,-2.509203 -0.1179,-0.8073 0.279,-1.731601 -0.293401,-2.421002 -0.924301,-1.129501 -2.436302,-1.379701 -3.712503,-1.922402 0.764101,-0.5436 1.511101,-1.100701 2.304002,-1.614601 1.775702,-1.159201 3.272403,-2.684703 5.017505,-3.917704 0.894601,-0.746101 2.288702,-1.479601 2.243702,-2.829603 -1.422901,0.513001 -2.860203,1.071001 -3.976204,2.127602 -1.671301,1.086301 -2.861103,2.802603 -4.723204,3.595504 -0.764101,0.2196 -1.306802,0.8217 -2.011502,1.159201 -1.099801,-0.1323 -2.200502,-0.351901 -3.300303,-0.337501 -0.748801,0.0441 -1.233002,0.821701 -1.922402,0.983701 -1.261801,-0.4842 -2.421003,-1.188901 -3.682804,-1.687501 -1.643401,-0.602101 -2.890803,-1.922402 -4.372204,-2.802603 -1.217701,-0.807301 -2.538002,-1.848602 -4.093204,-1.496701 0.1899,0.4986 0.3375,1.085401 0.821701,1.394101 0.939601,0.645301 2.039402,1.041301 2.949303,1.745102 1.129501,0.865801 2.303102,1.687501 3.609003,2.274302 0.572401,0.3375 1.320301,0.4995 1.701902,1.100701 -0.468901,0.5868 -0.968401,1.144801 -1.129501,1.908002 -0.337501,0.1179 -0.675001,0.2349 -1.027801,0.3528 -0.0585,0.954001 -0.586801,1.936802 -0.367201,2.905203 0.543601,1.055701 0.954001,2.186102 0.792001,3.389403 -0.689401,-0.2934 -1.422901,-0.558 -2.009702,-1.042201 -0.279,0.1908 -0.558,0.3663 -0.836101,0.558001 -0.2061,-0.440101 -0.396,-0.865801 -0.5724,-1.305902 -0.938701,-0.4113 -1.745102,-1.115101 -2.362502,-1.936801 0.1323,-0.220501 0.2934,-0.396001 0.4698,-0.586801 -0.0153,-0.1179 -0.0297,-0.2493 -0.0297,-0.3672 -0.851401,0.1026 -1.702802,0.0738 -2.553302,0.0153 -0.411301,-1.100701 -0.733501,-2.245503 -1.305902,-3.286803 -0.675,-0.777601 -1.525501,-1.378802 -2.376902,-1.965602 -1.673102,-0.663301 -3.067203,-1.881002 -4.753804,-2.540703 0.0288,0.367201 0.0738,0.733501 0.117,1.100701 -0.337501,0.162 -0.659701,0.337501 -0.982801,0.498601 0,0.0882 -0.0153,0.2637 -0.0153,0.3528 1.012501,0.234 1.863901,0.880201 2.832302,1.276201 0.894601,0.307801 1.540802,1.012501 2.288703,1.555202 1.056601,1.408501 1.687501,3.081603 1.834201,4.827604 1.203301,0.659701 1.936802,1.848602 2.846703,2.817003 0.689401,0.586801 1.643402,0.747901 2.274302,1.394101 0.411301,0.454501 1.042201,0.425701 1.584902,0.616501 0.6597,0.162 0.7479,0.968401 0.909001,1.525501 -3.330904,-0.3663 -6.426907,-1.730701 -9.66961,-2.450702 -2.274302,-0.703801 -4.548604,-1.525501 -6.940806,-1.701902 -2.479503,-0.5571 -4.974305,-1.188001 -7.527607,-1.305901 -2.127602,-0.2061 -4.2840042,-0.3231 -6.3972062,0.0441 -1.2474012,0.2052 -2.4651023,0.733501 -3.4047033,1.584902 -0.2349002,0.2493 -0.6453006,0.4554 -0.6165005,0.865801 -0.1908002,1.570501 0.3663003,3.081603 1.086301,4.446004 1.2330012,1.276201 2.3472023,2.700002 3.8295037,3.712503 1.3059012,0.836101 2.5677023,1.834202 4.1085043,2.200503 1.1295,0.3231 2.304001,0.0729 3.432602,-0.0882 0.0882,0.498601 0.0297,1.055701 0.279001,1.511102 0.938701,0.895501 2.187002,1.336501 3.316503,1.937702 0.982801,0.4257 1.878302,1.143901 2.993403,1.187101 0.5274,0.0738 0.895501,0.5436 1.378801,0.734401 1.364401,0.4689 2.817003,0.954 4.269604,0.5859 2.333702,-0.5283 4.446004,-1.671301 6.661807,-2.523602 0.9684,-0.909901 2.113202,-1.643402 3.404703,-2.025002 1.217701,-0.586801 2.421002,-1.202401 3.712503,-1.569602 0.234901,0.469801 0.454501,0.968401 0.645301,1.452602 -0.763201,0.2349 -1.570502,0.3672 -2.318402,0.6606 -0.645301,0.336601 -0.792001,1.100701 -1.203301,1.643402 -1.056601,0.3366 -2.201403,0.4104 -3.242704,0.881101 -1.394101,0.5715 -2.890802,1.069201 -4.020303,2.142002 -0.337501,0.2484 -0.1314,0.6741 -0.0729,0.997201 -1.233002,0.7632 -1.629902,2.230202 -2.231103,3.447903 -0.4113,0.792901 -0.2934,1.878302 -1.071001,2.450702 -0.5571,0.455401 -1.305901,0.719101 -1.672201,1.394102 -1.173601,0.2061 -1.995302,1.143901 -3.037503,1.643401 -0.469801,0.1764 -0.998101,0.162 -1.497602,0.2196 0.469801,0.646201 0.954001,1.261802 1.233002,2.009702 0.6309,-0.4842 1.320301,-0.8811 2.083502,-1.085401 1.291501,-0.3375 2.231102,-1.321201 3.360603,-1.966502 0.704701,-0.3951 1.012501,-1.232101 1.672201,-1.687501 0.411301,-0.2934 0.806401,-0.616501 1.027801,-1.085401 0.351901,-0.719101 0.821701,-1.395002 0.880201,-2.215802 0.0882,-0.425701 0.117,-0.998101 0.513901,-1.260902 1.673101,-0.2502 3.096003,-1.248301 4.357804,-2.319302 0.748801,-0.4986 1.379701,-1.364401 2.391302,-1.246501 0.162,0.3213 -0.0144,0.674101 -0.1467,0.982801 -0.2493,0.572401 -0.279,1.232101 -0.6012,1.776602 -0.586801,0.981901 -1.438202,1.788301 -2.039402,2.756702 -0.704701,1.116001 -1.129502,2.391303 -1.804502,3.521704 -0.396001,0.675 -0.455401,1.467901 -0.777601,2.156402 -0.924301,1.672201 -2.670302,2.919603 -2.979003,4.887004 -0.1026,0.572401 -0.6894,0.806401 -1.026901,1.202402 -0.968401,1.115101 -2.318402,1.805401 -3.448803,2.729702 0.3375,0.468901 0.675001,0.968401 0.909901,1.496702 l 1.232101,-0.969301 c 0.1323,0.2502 0.279,0.4851 0.4257,0.7191 0.161101,-0.4104 0.249301,-0.8496 0.468901,-1.231201 0.3375,-0.1764 0.748801,-0.1467 1.086301,-0.3087 0.1611,-0.279 0.1611,-0.616501 0.1764,-0.939601 0.645301,-0.4248 1.143901,-1.026001 1.629002,-1.629002 0.1755,0.131401 0.3672,0.264601 0.558,0.396901 0.0288,-0.2205 0.0729,-0.675901 0.1026,-0.895501 1.291502,-0.806401 1.908002,-2.273402 2.700003,-3.506403 0.4257,-0.690301 1.365301,-0.954901 1.511101,-1.834202 0.337501,-0.939601 0.777601,-1.892702 1.584902,-2.509203 0.1611,1.129502 0.4257,2.259903 0.880201,3.316504 0.6021,1.495801 0.909901,3.111303 1.599301,4.578304 1.496702,2.538002 3.051903,5.268605 5.737506,6.720306 1.026901,0.719101 2.509202,0.601201 3.506403,-0.1179 1.026901,-0.5562 1.906202,-1.333801 2.538002,-2.317502 0.601201,-0.954001 1.481402,-1.672201 2.053802,-2.641502 0.821701,-1.378802 1.907102,-2.655903 2.186103,-4.284904 0.5004,-1.438202 0.7488,-2.920503 1.0278,-4.417205 -0.2052,-0.8064 0.719101,-0.63 1.115102,-0.836101 0.3519,0.983701 1.086301,1.745102 1.643401,2.611803 0.3528,0.616501 1.320301,0.3087 1.614602,0.982801 0.3816,0.866701 0.792,1.716302 1.377901,2.465102 0.3825,0.616501 1.160101,0.792001 1.834202,0.894601 0.2934,0.616501 0.5724,1.232101 0.851401,1.863902 0.1611,-0.1467 0.3087,-0.3087 0.4689,-0.455401 0.719101,0.630001 1.365301,1.379702 2.244602,1.805402 0.2205,0.1026 0.440101,-0.0891 0.660601,-0.1323 0.3519,0.3672 0.6894,0.748801 1.041301,1.115101 l -0.0441,-0.837001 c 0.5436,-0.3816 1.056601,-0.8217 1.378801,-1.422901 -0.4689,-0.1026 -0.968401,-0.1611 -1.422901,-0.3375 -0.719101,-0.337501 -1.159201,-1.071001 -1.908002,-1.349102 -0.954001,-0.396 -1.834202,-1.042201 -2.435402,-1.893601 -0.162001,-0.512101 0.0441,-1.129502 -0.322201,-1.584002 -0.4113,-0.5292 -0.850501,-1.057501 -1.453501,-1.350901 -0.409501,-0.2484 -1.054801,-0.365401 -1.069201,-0.967501 -0.1764,-1.086301 -0.587701,-2.127602 -1.305901,-2.963703 -0.704701,-0.733501 -1.143902,-1.673102 -1.791002,-2.465102 -0.556201,-0.837001 -1.377901,-1.467902 -1.965602,-2.289603 -0.954001,-1.130401 -1.497601,-2.523602 -1.893602,-3.916803 1.556102,0.2187 2.993403,1.054801 4.064404,2.185202 0.441,0.4842 1.115101,0.6012 1.643402,0.954901 0.6894,0.3366 1.292401,1.099801 2.142902,0.821701 0.7776,1.701901 1.291501,3.667503 2.788202,4.930204 2.171702,1.232101 4.239904,3.125703 6.881407,3.125703 0.1917,-0.5724 0.4257,-1.129501 0.660601,-1.673101 -0.338401,-0.0432 -0.675001,-0.0882 -0.998101,-0.131401 -0.102601,-0.279 -0.189901,-0.5427 -0.279001,-0.8217 -0.6165,-0.0144 -1.305901,0.0891 -1.834201,-0.292501 -0.689401,-0.4851 -1.511102,-0.7191 -2.215803,-1.188901 -0.3951,-0.5283 -0.5715,-1.187101 -0.9531,-1.716301 0.2052,-1.556102 -1.732502,-2.420103 -1.409402,-4.005904 -0.3078,-0.1314 -0.6012,-0.2637 -0.909901,-0.396001 0.0297,-0.3222 0.045,-0.6453 0.0738,-0.9675 -2.772902,-1.071002 -5.751905,-1.570502 -8.437508,-2.846703 -1.041301,-0.792001 -2.053802,-1.672202 -3.375003,-1.951202 0.441001,-0.0153 0.895501,-0.0297 1.335601,0 -0.0288,-0.0738 -0.0729,-0.2061 -0.1026,-0.279 -0.2637,-0.0738 -0.8064,-0.205201 -1.071001,-0.279001 0.469801,-0.234 0.998101,-0.4986 1.497602,-0.1314 1.833301,0.748801 3.506403,1.848602 5.399105,2.450703 2.040302,1.026901 4.284904,1.569601 6.485406,2.201402 1.482301,0.2052 3.067203,-0.0153 4.431604,-0.661501 1.643402,-0.630001 2.905203,-1.950302 4.519805,-2.625302 1.011601,-0.586801 1.994402,-1.291502 2.727902,-2.215803 0.366301,-0.6165 0.572401,-1.320301 0.821701,-1.995301 1.365301,0.0585 2.802603,0.1764 4.078804,-0.411301 1.218601,-0.3816 2.127602,-1.291501 3.096003,-2.069102 1.070101,-1.188001 2.304002,-2.230202 3.155403,-3.594603 0.792001,-1.217701 1.716302,-2.465103 1.745102,-3.976204 0.063,-0.531001 -0.0252,-1.177201 -0.510301,-1.485001 z M 52.150869,72.423881 c -0.367201,0.5436 -0.764101,1.115101 -1.335602,1.451701 -1.320301,0.1026 -2.684702,0.220501 -4.005904,0.0297 -0.558,-0.3222 -1.511101,-1.084501 -1.012501,-1.818901 0.175501,-0.264601 0.425701,-0.485101 0.748801,-0.558901 0.836101,-0.0801 1.672202,-0.1188 2.509203,-0.117 0.8361,0.0027 1.673101,0.0441 2.508302,0.117 0.4113,0.0603 0.821701,0.471601 0.587701,0.896401 z m 2.230202,-3.051903 c -3.667504,0.1908 -7.336807,0.1764 -10.989911,0.3519 -0.3528,-0.7488 -0.690301,-1.495801 -0.939601,-2.274302 2.142002,-0.4986 4.357804,-0.3807 6.529506,-0.4986 1.064702,-0.0216 2.139303,-0.0729 3.209404,-0.0693 1.071001,0.0036 2.139302,0.0612 3.187803,0.2601 -0.293401,0.763201 -0.659701,1.482301 -0.997201,2.230202 z m 2.025002,-4.871705 c -2.318403,0.189901 -4.651205,0.205201 -6.984907,0.249301 -2.685603,0.117 -5.384705,0.2196 -8.055908,-0.0297 -0.2349,-0.763201 -0.4401,-1.525502 -0.6453,-2.288703 2.098802,-0.3519 4.240804,-0.1764 6.354006,-0.2484 2.013302,-0.0558 4.034704,-0.1341 6.052505,-0.1404 0.673201,-0.0018 1.346402,0.0036 2.017802,0.0225 0.645301,-0.0576 1.261802,0.1476 1.834202,0.3951 -0.1773,0.690301 -0.3825,1.350902 -0.5724,2.040302 z m 1.085401,-7.131606 c 0.0441,0.8064 0.1026,1.613701 0.1314,2.421002 -5.810406,0.4104 -11.650511,0.1467 -17.475317,0.2196 -0.0297,-0.836101 -0.0297,-1.657802 0,-2.493902 4.697105,0.0711 9.395109,-0.1476 14.093114,-0.1692 1.085401,-0.0027 2.167202,9e-4 3.250803,0.0225 z m -1.731602,-4.547705 c 0.2493,0.658801 0.691201,1.290601 0.691201,2.008802 -0.470701,0.647101 -1.380602,0.3816 -2.040302,0.484201 -4.666505,0.1323 -9.347409,0.2934 -14.013014,0.0297 0.2052,-0.792001 0.469801,-1.570502 0.703801,-2.347203 3.664803,-0.1224 7.329607,-0.1854 10.99351,-0.1908 1.221302,-9e-4 2.444403,0.0045 3.664804,0.0153 z"
     id="path3"
     inkscape:connector-curvature="0"
     style="fill:#020202" /></svg>