<?xml version="1.0" encoding="UTF-8" standalone="no"?>
<svg
   xmlns:osb="http://www.openswatchbook.org/uri/2009/osb"
   xmlns:dc="http://purl.org/dc/elements/1.1/"
   xmlns:cc="http://creativecommons.org/ns#"
   xmlns:rdf="http://www.w3.org/1999/02/22-rdf-syntax-ns#"
   xmlns:svg="http://www.w3.org/2000/svg"
   xmlns="http://www.w3.org/2000/svg"
   xmlns:xlink="http://www.w3.org/1999/xlink"
   xml:space="preserve"
   enable-background="new 0 0 100 100"
   viewBox="0 0 100 100"
   height="100px"
   width="100px"
   y="0px"
   x="0px"
   id="Layer_1"
   version="1.1"><metadata
     id="metadata9"><rdf:RDF><cc:Work
         rdf:about=""><dc:format>image/svg+xml</dc:format><dc:type
           rdf:resource="http://purl.org/dc/dcmitype/StillImage" /><dc:title></dc:title></cc:Work></rdf:RDF></metadata><defs
     id="defs7"><linearGradient
       osb:paint="solid"
       id="linearGradient4573"><stop
         id="stop4575"
         offset="0"
         style="stop-color:#000000;stop-opacity:1;" /></linearGradient><linearGradient
       id="linearGradient4567"><stop
         id="stop4555"
         offset="0"
         style="stop-color:#e3443c;stop-opacity:1" /><stop
         id="stop4557"
         offset="1"
         style="stop-color:#fb7468;stop-opacity:1" /></linearGradient><linearGradient
       gradientUnits="userSpaceOnUse"
       y2="-0.033394534"
       x2="49.416084"
       y1="99.74057"
       x1="49.685051"
       id="linearGradient4559"
       xlink:href="#linearGradient4567" /></defs><circle
     r="30"
     cy="34.345039"
     cx="50"
     id="path3561"
     style="opacity:1;fill:#ffffff;fill-opacity:1;fill-rule:nonzero;stroke:none;stroke-width:5.99881887;stroke-linecap:butt;stroke-linejoin:miter;stroke-miterlimit:4;stroke-dasharray:none;stroke-opacity:1" /><path
     style="fill:url(#linearGradient4559);stroke:#000000;fill-opacity:1;stroke-width:0.5;stroke-miterlimit:4;stroke-dasharray:none;stroke-opacity:1"
     id="path3"
     d="M 50.001953 0 C 30.108953 0 13.980469 17.104531 13.980469 36.019531 C 13.980469 62.663531 49.260953 99.667094 50.001953 99.996094 C 50.740953 100.32509 86.019531 62.663531 86.019531 36.019531 C 86.019531 16.118531 69.894953 -4.7369516e-15 50.001953 0 z M 50 8.6269531 A 26.718199 26.718199 0 0 1 76.71875 35.34375 A 26.718199 26.718199 0 0 1 50 62.0625 A 26.718199 26.718199 0 0 1 23.28125 35.34375 A 26.718199 26.718199 0 0 1 50 8.6269531 z " /><path
     style="fill:#020202"
     d="m 73.489928,27.165436 c -1.503146,-0.5966 -3.138447,-0.743967 -4.743324,-0.774867 -0.992114,0.139761 -1.968542,0.387433 -2.960657,0.511508 0.04706,0.0309 0.101256,0.0618 0.147843,0.09317 -1.054864,0.170185 -1.984704,0.720673 -3.015324,0.960739 -1.48841,0.379352 -2.805209,1.193675 -4.293618,1.550209 -0.356534,0.0694 -0.682167,0.26336 -1.031096,0.356534 -0.40312,0.116467 -0.759178,0.37222 -1.185592,0.43402 -0.379829,0.05419 -0.666006,0.379828 -1.06152,0.371746 -0.108862,-0.147368 -0.247674,-0.333241 -0.163055,-0.519114 0.108861,-0.286652 0.132155,-0.674085 0.457789,-0.782473 0.67361,-0.263359 1.286374,-0.66648 1.883448,-1.077206 0.270967,-0.333241 0.611813,-0.597076 0.983558,-0.806242 0.225329,-0.294259 0.240541,-0.697381 0.426415,-1.015408 0.294259,-0.542882 0.33324,-1.162776 0.487738,-1.751769 0.0309,-0.162579 -0.05419,-0.317554 -0.0927,-0.480608 0.968346,-0.5966 1.969017,-1.162776 2.774783,-1.984229 -0.279046,-0.162579 -0.519588,-0.371747 -0.79816,-0.534801 -0.279047,0.278572 -0.612762,0.488214 -0.976902,0.643187 -0.488214,0.36414 -1.162775,0.472526 -1.526916,0.99164 -0.138335,0.388384 -0.479656,0.612762 -0.720197,0.923184 -0.302341,0.550013 -0.270966,1.201281 -0.309947,1.805963 -0.441627,0.154973 -0.976902,0.170185 -1.286373,0.557618 -0.348454,0.426415 -0.774868,0.767736 -1.169907,1.147088 -0.147842,0.20156 -0.22533,0.442102 -0.333716,0.666481 -0.457314,-0.185873 -0.945051,-0.09317 -1.364336,0.139286 l -0.231508,-0.186345 c 0.255278,-0.39504 0.604207,-0.821454 0.52672,-1.325354 -0.06227,-0.426415 0.147367,-0.914629 -0.154974,-1.278768 -0.488213,-0.5966 -1.286849,-0.728755 -1.960935,-1.015408 0.403596,-0.287129 0.798159,-0.581389 1.216968,-0.852829 0.937922,-0.612287 1.728475,-1.418054 2.650234,-2.069323 0.472526,-0.394088 1.208888,-0.781521 1.185119,-1.494589 -0.751574,0.270965 -1.510752,0.565701 -2.100222,1.123795 -0.882778,0.573782 -1.511228,1.480327 -2.494786,1.899137 -0.403596,0.115992 -0.690248,0.43402 -1.062471,0.612286 -0.580911,-0.06988 -1.1623,-0.185873 -1.743211,-0.178266 -0.395515,0.02329 -0.651269,0.43402 -1.015409,0.519588 -0.66648,-0.255754 -1.278767,-0.627975 -1.945247,-0.891334 -0.868041,-0.318029 -1.526916,-1.015408 -2.309388,-1.480328 -0.643188,-0.426415 -1.340567,-0.976427 -2.162021,-0.790554 0.100304,0.263359 0.178266,0.573305 0.43402,0.736361 0.496295,0.340846 1.077207,0.550012 1.557815,0.921758 0.5966,0.457314 1.216494,0.891334 1.906267,1.201281 0.30234,0.178267 0.69738,0.263835 0.898941,0.581388 -0.247672,0.309947 -0.511508,0.604681 -0.596601,1.007801 -0.178267,0.06227 -0.356533,0.124075 -0.542881,0.18635 -0.0309,0.5039 -0.309947,1.023013 -0.193955,1.534521 0.287129,0.557618 0.503901,1.154694 0.418333,1.790274 -0.364139,-0.154973 -0.751574,-0.294734 -1.06152,-0.550488 -0.147367,0.10078 -0.294734,0.193479 -0.441626,0.294735 -0.108862,-0.23246 -0.209166,-0.457314 -0.30234,-0.689774 -0.495821,-0.217249 -0.921759,-0.588994 -1.247869,-1.023014 0.06988,-0.116468 0.154974,-0.209166 0.248148,-0.309948 -0.0081,-0.06227 -0.01569,-0.131679 -0.01569,-0.193954 -0.449708,0.05419 -0.899416,0.03898 -1.348648,0.0081 -0.217248,-0.581388 -0.387434,-1.186069 -0.689774,-1.736082 -0.356534,-0.410726 -0.805766,-0.72828 -1.255475,-1.038226 -0.883728,-0.350354 -1.620089,-0.993541 -2.510948,-1.341993 0.01521,0.193954 0.03898,0.387433 0.0618,0.581387 -0.178267,0.08557 -0.348452,0.178268 -0.519113,0.263361 0,0.04659 -0.0081,0.139285 -0.0081,0.186348 0.5348,0.123598 0.984509,0.464919 1.496015,0.674086 0.472526,0.16258 0.813849,0.534801 1.208888,0.821454 0.558093,0.743967 0.891334,1.627695 0.968821,2.549929 0.63558,0.348452 1.023014,0.976427 1.503621,1.487934 0.36414,0.309948 0.868042,0.39504 1.201281,0.736362 0.217248,0.240065 0.550488,0.224853 0.837142,0.325633 0.348452,0.08557 0.395039,0.511508 0.480132,0.805767 -1.759375,-0.193479 -3.394677,-0.914153 -5.107465,-1.294455 -1.201281,-0.371747 -2.402562,-0.805767 -3.666118,-0.898941 -1.309667,-0.294259 -2.627416,-0.627499 -3.976064,-0.689774 -1.123794,-0.108862 -2.262801,-0.170661 -3.37899,0.02329 -0.658874,0.108386 -1.302061,0.387433 -1.798355,0.837141 -0.124075,0.131679 -0.340847,0.240541 -0.325635,0.457314 -0.10078,0.829535 0.193479,1.627695 0.573782,2.348368 0.651268,0.674087 1.239787,1.426136 2.022734,1.960936 0.689775,0.441627 1.356254,0.968822 2.170103,1.162301 0.5966,0.17066 1.216968,0.03851 1.813093,-0.04659 0.04659,0.263359 0.01569,0.557618 0.147367,0.79816 0.495819,0.473001 1.15517,0.705936 1.751769,1.023489 0.519113,0.224855 0.992115,0.604206 1.581108,0.627024 0.278573,0.03898 0.473002,0.287129 0.72828,0.387909 0.720674,0.247672 1.487934,0.503901 2.255195,0.309471 1.232656,-0.279047 2.348369,-0.882777 3.518751,-1.332961 0.511506,-0.480607 1.116187,-0.86804 1.798356,-1.0696 0.643187,-0.309948 1.278767,-0.635106 1.960936,-0.82906 0.124073,0.248147 0.240065,0.511506 0.340846,0.767259 -0.403121,0.124075 -0.829536,0.193956 -1.224575,0.348929 -0.340846,0.177791 -0.418333,0.581387 -0.635581,0.86804 -0.558094,0.177793 -1.162776,0.216773 -1.712788,0.465396 -0.736362,0.301865 -1.526915,0.564749 -2.123516,1.131401 -0.178266,0.131204 -0.06941,0.356058 -0.03851,0.526718 -0.651268,0.403121 -0.860909,1.177988 -1.178463,1.821175 -0.217248,0.418808 -0.154973,0.992114 -0.5657,1.294456 -0.294259,0.240541 -0.689774,0.379827 -0.883253,0.73636 -0.619893,0.108861 -1.053914,0.604206 -1.604402,0.868041 -0.248147,0.09317 -0.527195,0.08557 -0.79103,0.115992 0.248148,0.341322 0.503902,0.666481 0.651269,1.06152 0.33324,-0.255753 0.69738,-0.465395 1.100501,-0.573307 0.682168,-0.178266 1.178463,-0.697854 1.775062,-1.0387 0.372221,-0.208692 0.534801,-0.650794 0.883254,-0.891335 0.217247,-0.154973 0.425938,-0.325634 0.542881,-0.573307 0.185873,-0.379827 0.434022,-0.736836 0.464921,-1.170381 0.04659,-0.224854 0.0618,-0.527195 0.271441,-0.666005 0.883729,-0.132155 1.635301,-0.65935 2.301782,-1.22505 0.395514,-0.263359 0.728754,-0.720674 1.26308,-0.658399 0.08557,0.169711 -0.0076,0.356059 -0.07749,0.519113 -0.131681,0.302341 -0.147369,0.650793 -0.317554,0.938398 -0.309946,0.518637 -0.759654,0.944575 -1.077208,1.456083 -0.37222,0.589469 -0.596599,1.26308 -0.953132,1.860155 -0.209166,0.356535 -0.240541,0.775343 -0.410728,1.139007 -0.488213,0.883253 -1.410447,1.542127 -1.573502,2.581304 -0.05419,0.30234 -0.364139,0.42594 -0.542406,0.635106 -0.511508,0.588993 -1.224575,0.953609 -1.82165,1.441822 0.178266,0.247672 0.356534,0.511507 0.480608,0.790555 l 0.650792,-0.511983 c 0.06988,0.132155 0.147367,0.256228 0.224854,0.379827 0.08509,-0.216773 0.13168,-0.448757 0.247673,-0.650317 0.178267,-0.09317 0.395514,-0.07749 0.573781,-0.163055 0.08509,-0.147367 0.08509,-0.325634 0.09317,-0.496296 0.340846,-0.224378 0.604207,-0.54193 0.860435,-0.860434 0.0927,0.06941 0.193954,0.139762 0.294735,0.209642 0.01521,-0.116468 0.03851,-0.357009 0.05419,-0.473002 0.682168,-0.425939 1.007802,-1.200805 1.426134,-1.852074 0.224854,-0.364614 0.72115,-0.504375 0.798161,-0.968821 0.178267,-0.496294 0.410727,-0.999721 0.837141,-1.325355 0.08509,0.596601 0.224854,1.193675 0.46492,1.75177 0.318028,0.790078 0.480607,1.643383 0.844748,2.41825 0.790553,1.340567 1.612008,2.782864 3.030536,3.549649 0.542407,0.379828 1.325355,0.317554 1.852074,-0.06227 0.542407,-0.293783 1.006851,-0.70451 1.340568,-1.224099 0.317552,-0.5039 0.782472,-0.883252 1.084812,-1.395235 0.434021,-0.728279 1.007327,-1.402841 1.154694,-2.263276 0.264312,-0.759654 0.395516,-1.542603 0.542883,-2.333156 -0.108386,-0.42594 0.379827,-0.332766 0.588993,-0.441628 0.185873,0.51959 0.573782,0.921759 0.868041,1.379548 0.186348,0.325635 0.697381,0.163055 0.852829,0.519114 0.201561,0.457789 0.418333,0.906546 0.727804,1.302061 0.202036,0.325634 0.612763,0.418333 0.968821,0.472526 0.154973,0.325634 0.302341,0.650793 0.449708,0.984509 0.08509,-0.07749 0.163054,-0.163055 0.247673,-0.240542 0.379827,0.332765 0.721148,0.728755 1.185593,0.953608 0.116468,0.05419 0.23246,-0.04706 0.348928,-0.06988 0.185873,0.193955 0.364139,0.395516 0.550012,0.588994 l -0.02329,-0.442101 c 0.287128,-0.201562 0.558094,-0.434021 0.72828,-0.751574 -0.247672,-0.05419 -0.511508,-0.08509 -0.751574,-0.178266 -0.379827,-0.178267 -0.612287,-0.565701 -1.007802,-0.712593 -0.503901,-0.209166 -0.96882,-0.550488 -1.286374,-1.000196 -0.08557,-0.27049 0.02329,-0.5966 -0.170185,-0.836665 -0.217248,-0.279523 -0.449232,-0.558571 -0.767736,-0.713544 -0.216298,-0.131204 -0.557144,-0.193003 -0.56475,-0.511031 -0.09317,-0.573782 -0.310421,-1.123795 -0.689773,-1.565422 -0.372222,-0.387433 -0.604206,-0.883727 -0.946003,-1.302061 -0.293784,-0.442101 -0.727805,-0.775341 -1.038227,-1.209362 -0.5039,-0.597075 -0.79103,-1.332961 -1.000196,-2.068846 0.82193,0.115517 1.581108,0.557143 2.146809,1.154218 0.232935,0.255754 0.588993,0.317553 0.868041,0.504376 0.36414,0.177792 0.682643,0.580913 1.131876,0.43402 0.410727,0.898941 0.682167,1.937168 1.472722,2.604124 1.147088,0.650792 2.239508,1.650989 3.634743,1.650989 0.101255,-0.302341 0.224854,-0.596601 0.348927,-0.883729 -0.178742,-0.02282 -0.356533,-0.04659 -0.527195,-0.06941 -0.05419,-0.147367 -0.100305,-0.286653 -0.147367,-0.43402 -0.325634,-0.0076 -0.689774,0.04706 -0.96882,-0.154498 -0.364141,-0.25623 -0.798161,-0.379828 -1.170382,-0.627975 -0.208692,-0.279047 -0.301866,-0.627024 -0.503426,-0.906547 0.108386,-0.821929 -0.915103,-1.278293 -0.744442,-2.115908 -0.162579,-0.06941 -0.317554,-0.139286 -0.480608,-0.209167 0.01569,-0.170186 0.02377,-0.340847 0.03898,-0.511032 -1.464641,-0.5657 -3.038143,-0.829536 -4.456671,-1.503621 -0.550014,-0.418333 -1.084814,-0.883254 -1.78267,-1.030621 0.232935,-0.0081 0.473002,-0.01569 0.705462,0 -0.01521,-0.03898 -0.03851,-0.108861 -0.05419,-0.147367 -0.139286,-0.03898 -0.42594,-0.108386 -0.565701,-0.147367 0.248149,-0.123598 0.527195,-0.26336 0.79103,-0.0694 0.968346,0.395514 1.852074,0.976427 2.851794,1.294455 1.077683,0.542406 2.263277,0.82906 3.425577,1.162775 0.782949,0.108386 1.620089,-0.0081 2.340763,-0.349402 0.868041,-0.332766 1.534521,-1.030146 2.38735,-1.38668 0.534325,-0.309947 1.053439,-0.682167 1.440872,-1.170382 0.193479,-0.325634 0.30234,-0.697379 0.434021,-1.053912 0.721148,0.0309 1.480328,0.09317 2.154414,-0.217249 0.643663,-0.201561 1.123794,-0.682168 1.635302,-1.092894 0.565224,-0.6275 1.216969,-1.177988 1.666676,-1.898662 0.418333,-0.643186 0.906546,-1.302061 0.921758,-2.100222 0.03328,-0.280473 -0.01331,-0.621794 -0.26954,-0.784373 z M 52.192504,48.38585 c -0.193954,0.287128 -0.403596,0.588993 -0.705461,0.766784 -0.697381,0.05419 -1.418055,0.116468 -2.115909,0.01569 -0.294735,-0.170186 -0.798161,-0.572831 -0.534802,-0.960739 0.0927,-0.139761 0.224855,-0.25623 0.395516,-0.295211 0.441626,-0.04231 0.883252,-0.06275 1.325355,-0.0618 0.441626,0.0014 0.883728,0.02329 1.324879,0.0618 0.217248,0.03185 0.43402,0.249099 0.310422,0.473478 z m 1.177987,-1.612009 c -1.937166,0.10078 -3.875284,0.09317 -5.804845,0.185874 -0.186348,-0.395516 -0.364615,-0.790079 -0.496294,-1.201281 1.1314,-0.263361 2.301782,-0.201085 3.44887,-0.263361 0.562372,-0.01141 1.129974,-0.03851 1.695198,-0.0366 0.565701,0.0019 1.129975,0.03233 1.68379,0.137385 -0.154973,0.403121 -0.348452,0.782948 -0.526719,1.177987 z m 1.069602,-2.573223 c -1.224575,0.100305 -2.456756,0.108386 -3.689412,0.131681 -1.418528,0.0618 -2.844188,0.115992 -4.255111,-0.01569 -0.124074,-0.403121 -0.232461,-0.805766 -0.340847,-1.208887 1.108583,-0.185874 2.239983,-0.09317 3.356172,-0.131205 1.063421,-0.02947 2.131121,-0.07083 3.19692,-0.07416 0.355582,-9.51e-4 0.711165,0.0019 1.065797,0.01188 0.340847,-0.03042 0.666481,0.07796 0.968821,0.208692 -0.09365,0.364615 -0.202036,0.713543 -0.30234,1.077682 z m 0.573305,-3.766898 c 0.02329,0.42594 0.05419,0.852354 0.06941,1.278768 -3.069042,0.216773 -6.153773,0.07749 -9.230421,0.115992 -0.01569,-0.441627 -0.01569,-0.875647 0,-1.317275 2.481,0.03755 4.962474,-0.07796 7.443949,-0.08937 0.573306,-0.0014 1.144712,4.76e-4 1.717066,0.01188 z m -0.914627,-2.402087 c 0.13168,0.347978 0.365091,0.681693 0.365091,1.061045 -0.248623,0.341798 -0.729231,0.20156 -1.077683,0.255754 -2.464837,0.06988 -4.93728,0.154974 -7.401641,0.01569 0.108386,-0.418334 0.248147,-0.829536 0.371746,-1.239787 1.935741,-0.06465 3.871482,-0.09793 5.806746,-0.10078 0.645089,-4.75e-4 1.291128,0.0024 1.935741,0.0081 z"
     id="path3469" /></svg>