<?xml version="1.0" encoding="UTF-8" standalone="no"?>
<svg
   xmlns:dc="http://purl.org/dc/elements/1.1/"
   xmlns:cc="http://creativecommons.org/ns#"
   xmlns:rdf="http://www.w3.org/1999/02/22-rdf-syntax-ns#"
   xmlns:svg="http://www.w3.org/2000/svg"
   xmlns="http://www.w3.org/2000/svg"
   xmlns:sodipodi="http://sodipodi.sourceforge.net/DTD/sodipodi-0.dtd"
   xmlns:inkscape="http://www.inkscape.org/namespaces/inkscape"
   width="96"
   height="96"
   viewBox="0 0 76.8 76.8"
   version="1.1"
   id="svg2"
   inkscape:version="0.91 r13725"
   sodipodi:docname="chickens.svg">
  <metadata
     id="metadata10">
    <rdf:RDF>
      <cc:Work
         rdf:about="">
        <dc:format>image/svg+xml</dc:format>
        <dc:type
           rdf:resource="http://purl.org/dc/dcmitype/StillImage" />
        <dc:title></dc:title>
      </cc:Work>
    </rdf:RDF>
  </metadata>
  <defs
     id="defs8" />
  <sodipodi:namedview
     pagecolor="#ffffff"
     bordercolor="#666666"
     borderopacity="1"
     objecttolerance="10"
     gridtolerance="10"
     guidetolerance="10"
     inkscape:pageopacity="0"
     inkscape:pageshadow="2"
     inkscape:window-width="1280"
     inkscape:window-height="706"
     id="namedview6"
     showgrid="true"
     inkscape:zoom="4.688118"
     inkscape:cx="41.298598"
     inkscape:cy="54.217106"
     inkscape:window-x="0"
     inkscape:window-y="0"
     inkscape:window-maximized="1"
     inkscape:current-layer="svg2"
     inkscape:snap-grids="false">
    <inkscape:grid
       type="xygrid"
       id="grid3807" />
  </sodipodi:namedview>
  <path
     id="path4416"
     d="m 16.30888,2.4038914 c 0.421622,0.576216 0.787022,1.1664826 1.180533,1.7567401 0.09837,0.014051 0.295129,0.014051 0.407562,0.014051 0.168645,-0.3935111 0.337299,-0.7729715 0.519995,-1.1524228 0.168645,0.3232393 0.337299,0.6605293 0.534054,0.9837686 0.168645,-0.4075618 0.30918,-0.8291743 0.449723,-1.2507959 0.126484,0.4918843 0.238917,0.9837777 0.393512,1.4616113 0.33729,-0.2670273 0.674589,-0.5199948 0.997828,-0.7729715 0.252967,0.6464878 0.491884,1.307017 0.674589,1.9816062 -0.435672,0.2389168 -0.871345,0.4637829 -1.292966,0.7026996 1.321077,1.1102615 3.091867,1.5740345 4.356723,2.7967295 1.714579,1.6724185 3.274563,3.5415915 4.244281,5.7480635 0.941617,1.630257 1.292967,3.527531 2.375118,5.073465 0.801072,1.194584 1.616205,2.375117 2.585923,3.443217 0.801073,0.969718 2.206472,0.871345 3.302674,1.250796 1.0681,0.365401 2.178361,0.01405 3.260512,0.04215 2.065929,0.0562 4.342664,0.154595 6.141574,-1.039989 1.363229,-0.899456 2.543763,-2.10809 3.358886,-3.52754 0.519995,-0.843234 0.35135,-1.869173 0.519995,-2.79673 0.37946,-2.684297 0.7027,-5.509137 2.192412,-7.8420935 1.011889,-1.461612 2.599984,-2.7264672 4.455097,-2.7124073 0.787022,0.1124331 1.236745,0.8151236 1.588095,1.4475513 0.688649,0.126484 1.559984,-0.0843 2.037818,0.534055 0.913506,0.688639 1.461611,1.7145795 2.318905,2.4734905 1.138363,0.899446 1.686469,2.304846 2.754569,3.274564 -0.126484,0.407562 -0.32324,0.801073 -0.337299,1.222694 0.210815,0.421613 0.674589,0.702691 0.75892,1.166474 -0.168654,0.913506 -0.688649,1.714578 -0.843243,2.628084 -0.01405,0.548106 0.323239,1.011889 0.35135,1.545934 -0.07025,1.447552 -0.801073,2.937274 -0.295129,4.370774 0.604318,1.363229 0.393511,2.881052 0.716751,4.300503 0.449723,1.307017 -1.011889,2.347006 -2.009717,2.85295 -0.435672,1.630257 0.140544,3.541591 -1.03999,4.918871 -0.548105,0.787022 -1.264856,1.489721 -1.686468,2.361066 -0.196756,1.194584 0.407562,2.276735 0.772962,3.344835 0.09838,2.192413 -0.3654,4.398876 -1.180533,6.422643 -0.871335,1.644316 -1.953496,3.14808 -3.077808,4.623751 -0.590266,0.758911 -1.208634,1.545924 -2.094039,1.981597 -1.517823,0.815132 -2.923213,1.827012 -4.511308,2.473499 -0.969718,0.182696 -1.967547,0.09837 -2.937274,0.196756 -0.33729,0.0843 -0.997828,-0.0843 -1.208634,0.33729 -0.32324,1.461611 -0.01405,2.979434 0.463773,4.370774 0.857294,0.941616 2.206473,1.124312 3.344845,1.574035 -1.05405,0.196756 -2.10809,-0.07025 -3.148089,-0.168645 0.337299,1.728639 0.71675,3.457268 1.405399,5.087524 -0.168654,0.154595 -0.35135,0.295138 -0.519995,0.449724 -0.562156,-0.829175 -0.73081,-2.347007 -1.939444,-2.459431 -1.377289,-0.435672 -2.206473,0.871335 -3.316725,1.335118 -1.503772,0.716751 -3.007545,1.602146 -4.722124,1.602146 0.534046,-0.70269 1.194584,-1.321068 2.037818,-1.588086 0.997829,-0.309188 1.925385,-0.843243 2.628085,-1.630256 -1.433501,-0.154594 -2.881052,-0.09838 -4.314553,-0.337299 -0.477834,1.054049 -1.039999,2.290795 -0.618377,3.457268 0.744861,0.829183 1.967555,0.969718 2.951324,1.41945 -0.674589,0.07025 -1.363229,0.154594 -2.023768,0 -0.660529,-0.01405 -1.40539,-0.407571 -2.009707,0.01405 -0.997828,0.702699 -1.897284,1.517823 -2.895112,2.220523 -0.04215,-0.421622 -0.07025,-0.843235 -0.09837,-1.250805 -2.571873,0.196755 -5.171847,0.323248 -7.74372,0.168654 0.519995,-0.463783 1.096211,-0.913506 1.784851,-1.096211 1.377279,-0.323239 2.796729,-0.182705 4.188069,-0.252968 -0.463783,-0.548105 -1.222695,-0.632427 -1.855123,-0.899455 0.112433,-0.196755 0.224866,-0.407562 0.3373,-0.604317 1.292957,0.154594 2.431329,0.927556 3.738346,0.997828 0.997828,-1.250796 1.77079,-2.698356 2.44538,-4.145908 0.519994,-1.714578 1.138372,-3.429157 1.292966,-5.214008 -1.0681,-0.71675 -2.347007,-1.025939 -3.443218,-1.672417 -0.548096,-0.576216 -0.646478,-1.4054 -0.688639,-2.150252 -1.405391,-0.927565 -2.09404,-2.571872 -3.51348,-3.485378 -0.815133,-0.604318 -1.7708,-1.011879 -2.557823,-1.658367 -1.110252,-0.857285 -2.487541,-1.307017 -3.583751,-2.192412 -0.393512,-0.252968 -0.744852,-0.7027 -1.278907,-0.7027 -1.0681,-0.07025 -2.220523,-0.224857 -2.993485,-1.05404 -2.178362,-2.10809 -4.455097,-4.511309 -5.059414,-7.603177 -0.7027,-3.358894 0.379451,-6.731831 0.548105,-10.090726 0.140535,-2.543762 1.503764,-4.820497 1.75674,-7.350209 0.491885,-2.234573 0.112433,-4.60969 0.885396,-6.802103 0.252967,-0.674589 -0.112433,-1.363229 -0.337299,-1.981597 -0.463774,0.393502 -0.899446,0.941608 -1.559985,0.997829 -1.025939,-0.07025 -1.939436,-0.7027 -2.403218,-1.616206 -0.730811,-0.969718 -0.491894,-2.234574 -0.252977,-3.330785 -1.096202,-0.0562 -2.178353,0.238917 -3.274563,0.281078 0.238916,-0.71675 0.71675,-1.278906 1.278906,-1.7707915 0.37946,-0.281078 0.337299,-0.787022 0.421622,-1.222694 0.224866,-0.140534 0.435672,-0.295129 0.660538,-0.435672 0.07025,-0.8010729 0.154585,-1.6021458 0.33729,-2.389168 0.252968,0.028101 0.505944,0.042152 0.744861,0.070253 0.0281,-0.4918935 0.04215,-0.9837778 0.0843,-1.4616114 0.295129,0.2108063 0.604318,0.4216217 0.927557,0.6183772 0.01405,-0.562156 -0.07025,-1.138372 -0.154595,-1.7005281 0.463783,0.2529675 0.885405,0.5481054 1.321077,0.8291835 0,-0.6043174 -0.01405,-1.2086439 -0.01405,-1.8129612 M 43.03945,61.064972 c -0.674589,0.604317 -1.658367,0.871344 -2.079979,1.714579 -0.7027,1.166473 -1.194584,2.445379 -1.74269,3.682134 1.068101,0.267018 2.220523,0.519995 3.316725,0.252967 1.138372,-0.435672 1.742689,-1.644307 2.009717,-2.754568 0.238916,-1.405399 0.505944,-2.82484 0.3654,-4.258341 -0.674589,0.379451 -1.292957,0.857285 -1.869173,1.363229 z"
     inkscape:connector-curvature="0"
     style="fill:#000000;stroke:#000000;stroke-width:0.01317556" />
</svg>
