<?xml version="1.0" encoding="utf-8"?>
<!-- Generator: Adobe Illustrator 15.1.0, SVG Export Plug-In . SVG Version: 6.00 Build 0)  -->
<!DOCTYPE svg PUBLIC "-//W3C//DTD SVG 1.1//EN" "http://www.w3.org/Graphics/SVG/1.1/DTD/svg11.dtd">
<svg version="1.1" id="Layer_1" xmlns="http://www.w3.org/2000/svg" xmlns:xlink="http://www.w3.org/1999/xlink" x="0px" y="0px"
	 width="100px" height="63.6px" viewBox="0 0 100 63.6" enable-background="new 0 0 100 63.6" xml:space="preserve">
<path fill="#020202" d="M99.411,14.298c-3.162-1.255-6.602-1.565-9.978-1.63c-2.087,0.294-4.141,0.815-6.228,1.076
	c0.099,0.065,0.213,0.13,0.311,0.196c-2.219,0.358-4.175,1.516-6.343,2.021c-3.131,0.798-5.901,2.511-9.032,3.261
	c-0.75,0.146-1.435,0.554-2.169,0.75c-0.848,0.245-1.597,0.783-2.494,0.913c-0.799,0.114-1.401,0.799-2.233,0.782
	c-0.229-0.31-0.521-0.701-0.343-1.092c0.229-0.603,0.278-1.418,0.963-1.646c1.417-0.554,2.706-1.402,3.962-2.266
	c0.57-0.701,1.287-1.256,2.069-1.696c0.474-0.619,0.506-1.467,0.897-2.136c0.619-1.142,0.701-2.446,1.026-3.685
	c0.065-0.342-0.114-0.668-0.195-1.011c2.037-1.255,4.142-2.446,5.837-4.174c-0.587-0.342-1.093-0.782-1.679-1.125
	c-0.587,0.586-1.289,1.027-2.055,1.353c-1.027,0.766-2.446,0.994-3.212,2.086C68.224,7.092,67.506,7.564,67,8.217
	c-0.636,1.157-0.57,2.527-0.652,3.799c-0.929,0.326-2.055,0.358-2.706,1.173c-0.733,0.897-1.63,1.615-2.461,2.413
	c-0.311,0.424-0.474,0.93-0.702,1.402c-0.962-0.391-1.988-0.196-2.87,0.293l-0.487-0.392c0.537-0.831,1.271-1.728,1.108-2.788
	c-0.131-0.897,0.31-1.924-0.326-2.69c-1.027-1.255-2.707-1.533-4.125-2.136c0.849-0.604,1.679-1.223,2.56-1.794
	c1.973-1.288,3.636-2.983,5.575-4.353C62.908,2.315,64.457,1.5,64.407,0c-1.581,0.57-3.178,1.19-4.418,2.364
	c-1.857,1.207-3.179,3.114-5.248,3.995c-0.849,0.244-1.452,0.913-2.235,1.288c-1.222-0.147-2.445-0.391-3.667-0.375
	c-0.832,0.049-1.37,0.913-2.136,1.093c-1.402-0.538-2.69-1.321-4.092-1.875c-1.826-0.669-3.212-2.136-4.858-3.114
	c-1.353-0.897-2.82-2.054-4.548-1.663c0.211,0.554,0.375,1.206,0.913,1.549c1.044,0.717,2.266,1.157,3.277,1.939
	c1.255,0.962,2.559,1.875,4.01,2.527c0.636,0.375,1.467,0.555,1.891,1.223c-0.521,0.652-1.076,1.272-1.255,2.12
	c-0.375,0.131-0.75,0.261-1.142,0.392c-0.065,1.06-0.652,2.152-0.408,3.228c0.604,1.173,1.06,2.429,0.88,3.766
	c-0.766-0.326-1.581-0.62-2.233-1.158c-0.31,0.212-0.62,0.407-0.929,0.62c-0.229-0.489-0.44-0.962-0.636-1.451
	c-1.043-0.457-1.939-1.239-2.625-2.152c0.147-0.245,0.326-0.44,0.522-0.652c-0.017-0.131-0.033-0.277-0.033-0.408
	c-0.946,0.114-1.892,0.082-2.837,0.017c-0.457-1.223-0.815-2.495-1.451-3.652c-0.75-0.864-1.695-1.532-2.641-2.184
	C26.649,6.7,25.1,5.347,23.226,4.614c0.032,0.408,0.082,0.815,0.13,1.223c-0.375,0.18-0.733,0.375-1.092,0.554
	c0,0.098-0.017,0.293-0.017,0.392c1.125,0.26,2.071,0.978,3.147,1.418c0.994,0.342,1.712,1.125,2.543,1.728
	c1.174,1.565,1.875,3.424,2.038,5.364c1.337,0.733,2.152,2.054,3.163,3.13c0.766,0.652,1.826,0.831,2.527,1.549
	c0.457,0.505,1.158,0.473,1.761,0.685c0.733,0.18,0.831,1.076,1.01,1.695c-3.701-0.407-7.141-1.923-10.744-2.723
	c-2.527-0.782-5.054-1.695-7.712-1.891c-2.755-0.619-5.527-1.32-8.364-1.451c-2.364-0.229-4.76-0.359-7.108,0.049
	c-1.386,0.228-2.739,0.815-3.783,1.761c-0.261,0.277-0.717,0.506-0.685,0.962c-0.212,1.745,0.407,3.424,1.207,4.94
	c1.37,1.418,2.608,3,4.255,4.125c1.451,0.929,2.853,2.038,4.565,2.445c1.255,0.359,2.56,0.081,3.814-0.098
	c0.098,0.554,0.033,1.173,0.31,1.679c1.043,0.995,2.43,1.485,3.685,2.153c1.092,0.473,2.087,1.271,3.326,1.319
	c0.586,0.082,0.995,0.604,1.532,0.816c1.516,0.521,3.13,1.06,4.744,0.651c2.593-0.587,4.94-1.857,7.402-2.804
	c1.076-1.011,2.348-1.826,3.783-2.25c1.353-0.652,2.69-1.336,4.125-1.744c0.261,0.522,0.505,1.076,0.717,1.614
	c-0.848,0.261-1.745,0.408-2.576,0.734c-0.717,0.374-0.88,1.223-1.337,1.826c-1.174,0.374-2.446,0.456-3.603,0.979
	c-1.549,0.635-3.212,1.188-4.467,2.38c-0.375,0.276-0.146,0.749-0.081,1.108c-1.37,0.848-1.811,2.478-2.479,3.831
	c-0.457,0.881-0.326,2.087-1.19,2.723c-0.619,0.506-1.451,0.799-1.858,1.549c-1.304,0.229-2.217,1.271-3.375,1.826
	c-0.522,0.196-1.109,0.18-1.664,0.244c0.522,0.718,1.06,1.402,1.37,2.233c0.701-0.538,1.467-0.979,2.315-1.206
	c1.435-0.375,2.479-1.468,3.734-2.185c0.783-0.439,1.125-1.369,1.858-1.875c0.457-0.326,0.896-0.685,1.142-1.206
	c0.391-0.799,0.913-1.55,0.978-2.462c0.098-0.473,0.13-1.109,0.571-1.401c1.859-0.278,3.44-1.387,4.842-2.577
	c0.832-0.554,1.533-1.516,2.657-1.385c0.18,0.357-0.016,0.749-0.163,1.092c-0.277,0.636-0.31,1.369-0.668,1.974
	c-0.652,1.091-1.598,1.987-2.266,3.063c-0.783,1.24-1.255,2.657-2.005,3.913c-0.44,0.75-0.506,1.631-0.864,2.396
	c-1.027,1.858-2.967,3.244-3.31,5.43c-0.114,0.636-0.766,0.896-1.141,1.336c-1.076,1.239-2.576,2.006-3.832,3.033
	c0.375,0.521,0.75,1.076,1.011,1.663l1.369-1.077c0.147,0.278,0.31,0.539,0.473,0.799c0.179-0.456,0.277-0.944,0.521-1.368
	c0.375-0.196,0.832-0.163,1.207-0.343c0.179-0.31,0.179-0.685,0.196-1.044c0.717-0.472,1.271-1.14,1.81-1.81
	c0.195,0.146,0.408,0.294,0.62,0.441c0.032-0.245,0.081-0.751,0.114-0.995c1.435-0.896,2.12-2.526,3-3.896
	c0.473-0.767,1.517-1.061,1.679-2.038c0.375-1.044,0.864-2.103,1.761-2.788c0.179,1.255,0.473,2.511,0.978,3.685
	c0.669,1.662,1.011,3.457,1.777,5.087c1.663,2.82,3.391,5.854,6.375,7.467c1.141,0.799,2.788,0.668,3.896-0.131
	c1.141-0.618,2.118-1.482,2.82-2.575c0.668-1.06,1.646-1.858,2.282-2.935c0.913-1.532,2.119-2.951,2.429-4.761
	c0.556-1.598,0.832-3.245,1.142-4.908c-0.228-0.896,0.799-0.7,1.239-0.929c0.391,1.093,1.207,1.939,1.826,2.902
	c0.392,0.685,1.467,0.343,1.794,1.092c0.424,0.963,0.88,1.907,1.531,2.739c0.425,0.685,1.289,0.88,2.038,0.994
	c0.326,0.685,0.636,1.369,0.946,2.071c0.179-0.163,0.343-0.343,0.521-0.506c0.799,0.7,1.517,1.533,2.494,2.006
	c0.245,0.114,0.489-0.099,0.734-0.147c0.391,0.408,0.766,0.832,1.157,1.239l-0.049-0.93c0.604-0.424,1.174-0.913,1.532-1.581
	c-0.521-0.114-1.076-0.179-1.581-0.375c-0.799-0.375-1.288-1.19-2.12-1.499c-1.06-0.44-2.038-1.158-2.706-2.104
	c-0.18-0.569,0.049-1.255-0.358-1.76c-0.457-0.588-0.945-1.175-1.615-1.501c-0.455-0.276-1.172-0.406-1.188-1.075
	c-0.196-1.207-0.653-2.364-1.451-3.293c-0.783-0.815-1.271-1.859-1.99-2.739c-0.618-0.93-1.531-1.631-2.184-2.544
	c-1.06-1.256-1.664-2.804-2.104-4.352c1.729,0.243,3.326,1.172,4.516,2.428c0.49,0.538,1.239,0.668,1.826,1.061
	c0.766,0.374,1.436,1.222,2.381,0.913c0.864,1.891,1.435,4.075,3.098,5.478c2.413,1.369,4.711,3.473,7.646,3.473
	c0.213-0.636,0.473-1.255,0.734-1.859c-0.376-0.048-0.75-0.098-1.109-0.146c-0.114-0.31-0.211-0.603-0.31-0.913
	c-0.685-0.016-1.451,0.099-2.038-0.325c-0.766-0.539-1.679-0.799-2.462-1.321c-0.439-0.587-0.635-1.319-1.059-1.907
	c0.228-1.729-1.925-2.689-1.566-4.451c-0.342-0.146-0.668-0.293-1.011-0.44c0.033-0.358,0.05-0.717,0.082-1.075
	c-3.081-1.19-6.391-1.745-9.375-3.163c-1.157-0.88-2.282-1.858-3.75-2.168c0.49-0.017,0.995-0.033,1.484,0
	c-0.032-0.082-0.081-0.229-0.114-0.31c-0.293-0.082-0.896-0.228-1.19-0.31c0.522-0.26,1.109-0.554,1.664-0.146
	c2.037,0.832,3.896,2.054,5.999,2.723c2.267,1.141,4.761,1.744,7.206,2.446c1.647,0.228,3.408-0.017,4.924-0.735
	c1.826-0.7,3.228-2.167,5.022-2.917c1.124-0.652,2.216-1.435,3.031-2.462c0.407-0.685,0.636-1.467,0.913-2.217
	c1.517,0.065,3.114,0.196,4.532-0.457c1.354-0.424,2.364-1.435,3.44-2.299c1.189-1.32,2.56-2.478,3.506-3.994
	c0.88-1.353,1.907-2.739,1.939-4.418C100.048,15.358,99.95,14.64,99.411,14.298z M54.61,58.937
	c-0.408,0.604-0.849,1.239-1.484,1.613c-1.467,0.114-2.983,0.245-4.451,0.033c-0.62-0.358-1.679-1.205-1.125-2.021
	c0.195-0.294,0.473-0.539,0.832-0.621c0.929-0.089,1.858-0.132,2.788-0.13c0.929,0.003,1.859,0.049,2.787,0.13
	C54.414,58.008,54.87,58.465,54.61,58.937z M57.088,55.546c-4.075,0.212-8.152,0.196-12.211,0.391
	c-0.392-0.832-0.767-1.662-1.044-2.527c2.38-0.554,4.842-0.423,7.255-0.554c1.183-0.024,2.377-0.081,3.566-0.077
	c1.19,0.004,2.377,0.068,3.542,0.289C57.87,53.916,57.463,54.715,57.088,55.546z M59.338,50.133
	c-2.576,0.211-5.168,0.228-7.761,0.277c-2.984,0.13-5.983,0.244-8.951-0.033c-0.261-0.848-0.489-1.695-0.717-2.543
	c2.332-0.391,4.712-0.196,7.06-0.276c2.237-0.062,4.483-0.149,6.725-0.156c0.748-0.002,1.496,0.004,2.242,0.025
	c0.717-0.064,1.402,0.164,2.038,0.439C59.777,48.633,59.549,49.367,59.338,50.133z M60.544,42.209
	c0.049,0.896,0.114,1.793,0.146,2.69c-6.456,0.456-12.945,0.163-19.417,0.244c-0.033-0.929-0.033-1.842,0-2.771
	c5.219,0.079,10.439-0.164,15.659-0.188C58.138,42.181,59.34,42.185,60.544,42.209z M58.62,37.156
	c0.277,0.732,0.768,1.434,0.768,2.232c-0.523,0.719-1.534,0.424-2.267,0.538c-5.185,0.147-10.386,0.326-15.57,0.033
	c0.228-0.88,0.522-1.745,0.782-2.608c4.072-0.136,8.144-0.206,12.215-0.212C55.905,37.138,57.264,37.144,58.62,37.156z"/>
</svg>
