<svg xmlns="http://www.w3.org/2000/svg" xmlns:xlink="http://www.w3.org/1999/xlink" version="1.1" id="Layer_1" x="0px" y="0px" width="100px" height="100px" viewBox="0 0 100 100" enable-background="new 0 0 100 100" xml:space="preserve">
<g>
	<path d="M93.176,51.406l-12.729-22.5H58.739L46.421,7.812H20.959L8.23,29.609l10.803,18.498L6.824,69.688l12.729,22.5h25.46   l10.345-18.281h25.088L93.176,51.406z M23.381,12.031h20.617l10.268,17.578L43.998,47.188H23.381L13.115,29.609L23.381,12.031z    M42.554,87.969h-20.54L11.671,69.688l10.343-18.281h20.242l10.492,18.545L42.554,87.969z M57.745,69.688L47.252,51.143   l10.194-18.018h20.539l10.342,18.281L77.985,69.688H57.745z"/>
	<polygon points="75.021,38.75 60.605,38.75 53.444,51.406 60.605,64.062 74.826,64.062 82.083,51.406  "/>
</g>
</svg>