<svg xmlns:dc="http://purl.org/dc/elements/1.1/" xmlns:cc="http://creativecommons.org/ns#" xmlns:rdf="http://www.w3.org/1999/02/22-rdf-syntax-ns#" xmlns:svg="http://www.w3.org/2000/svg" xmlns="http://www.w3.org/2000/svg" xmlns:sodipodi="http://sodipodi.sourceforge.net/DTD/sodipodi-0.dtd" xmlns:inkscape="http://www.inkscape.org/namespaces/inkscape" width="100" height="100" viewBox="0 0 80 80" version="1.1" id="svg2" inkscape:version="0.48.2 r9819" sodipodi:docname="blank.svg">
  <metadata id="metadata10">
    <rdf:RDF>
      <cc:Work rdf:about="">
        <dc:format>image/svg+xml</dc:format>
        <dc:type rdf:resource="http://purl.org/dc/dcmitype/StillImage"/>
        <dc:title/>
      </cc:Work>
    </rdf:RDF>
  </metadata>
  <defs id="defs8"/>
  <sodipodi:namedview pagecolor="#ffffff" bordercolor="#666666" borderopacity="1" objecttolerance="10" gridtolerance="10" guidetolerance="10" inkscape:pageopacity="0" inkscape:pageshadow="2" inkscape:window-width="1600" inkscape:window-height="853" id="namedview6" showgrid="true" inkscape:zoom="4.688118" inkscape:cx="67.961749" inkscape:cy="54.217106" inkscape:window-x="-4" inkscape:window-y="-4" inkscape:window-maximized="1" inkscape:current-layer="svg2" inkscape:snap-grids="false">
    <inkscape:grid type="xygrid" id="grid3807"/>
  </sodipodi:namedview>
  <path id="path4416" d="m 17.039291,1.6180977 c 0.45911,0.62745 0.857,1.2702 1.2855,1.91294 0.10712,0.0153 0.32137,0.0153 0.4438,0.0153 0.18364,-0.4285 0.36729,-0.8417 0.56623,-1.25489 0.18364,0.35198 0.36729,0.71926 0.58154,1.07124 0.18364,-0.4438 0.33667,-0.9029 0.48971,-1.36201 0.13773,0.53562 0.26016,1.07125 0.4285,1.59157 0.36728,-0.29077 0.73457,-0.56623 1.08655,-0.8417 0.27546,0.70397 0.53562,1.42323 0.73457,2.1578 -0.47441,0.26016 -0.94882,0.50502 -1.40793,0.76518 1.43854,1.20898 3.36678,1.71399 4.7441,3.0454 1.86703,1.8211203 3.56572,3.8564903 4.62166,6.2591503 1.02534,1.77521 1.40793,3.84118 2.5863,5.52457 0.8723,1.3008 1.75991,2.5863 2.81585,3.74937 0.8723,1.05594 2.40266,0.94882 3.59633,1.36201 1.16307,0.39789 2.37205,0.0153 3.55042,0.0459 2.24962,0.0612 4.72879,0.16834 6.68765,-1.13246 1.48444,-0.97943 2.76994,-2.29553 3.65754,-3.84119 0.56623,-0.91821 0.38259,-2.03537 0.56623,-3.0454 0.4132,-2.92297 0.76518,-5.99898 2.38735,-8.5393703 1.10186,-1.59157 2.83116,-2.96889 4.85122,-2.95358 0.857,0.12243 1.34671,0.8876 1.7293,1.57626 0.74988,0.13773 1.69869,-0.0918 2.21901,0.58154 0.99473,0.74987 1.59157,1.8670303 2.52509,2.6934203 1.23958,0.97942 1.83642,2.50978 2.99949,3.56572 -0.13773,0.4438 -0.35198,0.8723 -0.36729,1.33141 0.22956,0.4591 0.73457,0.76517 0.8264,1.27019 -0.18365,0.99473 -0.74988,1.86703 -0.91822,2.86176 -0.0153,0.59684 0.35198,1.10186 0.38259,1.68339 -0.0765,1.57626 -0.8723,3.19844 -0.32137,4.7594 0.65805,1.48444 0.4285,3.13722 0.78048,4.68288 0.48971,1.42323 -1.10186,2.55569 -2.18841,3.10662 -0.47441,1.77521 0.15304,3.85649 -1.13246,5.35623 -0.59684,0.857 -1.37732,1.62218 -1.83642,2.571 -0.21425,1.3008 0.4438,2.47917 0.84169,3.64224 0.10713,2.38735 -0.39789,4.79 -1.2855,6.99371 -0.94881,1.79052 -2.12719,3.42799 -3.35147,5.03487 -0.64275,0.82639 -1.3161,1.68338 -2.28023,2.15779 -1.65278,0.88761 -3.18313,1.98946 -4.91243,2.69343 -1.05594,0.19894 -2.14249,0.10712 -3.19844,0.21425 -0.36728,0.0918 -1.08655,-0.0918 -1.3161,0.36728 -0.35198,1.59157 -0.0153,3.24435 0.50501,4.7594 0.93352,1.02534 2.40266,1.22428 3.64225,1.71399 -1.14777,0.21425 -2.29553,-0.0765 -3.428,-0.18364 0.36729,1.88234 0.78048,3.76467 1.53036,5.53988 -0.18365,0.16834 -0.38259,0.32138 -0.56623,0.48971 -0.61214,-0.9029 -0.79579,-2.55569 -2.11189,-2.67811 -1.49975,-0.47441 -2.40266,0.94881 -3.61163,1.45383 -1.63748,0.78048 -3.27496,1.7446 -5.14199,1.7446 0.58153,-0.76517 1.3008,-1.43853 2.21901,-1.72929 1.08655,-0.33668 2.09658,-0.91822 2.86176,-1.77521 -1.56096,-0.16834 -3.13722,-0.10713 -4.69818,-0.36729 -0.52032,1.14777 -1.13247,2.49448 -0.67336,3.76467 0.81109,0.90291 2.1425,1.05594 3.21374,1.54566 -0.73457,0.0765 -1.48444,0.16834 -2.20371,0 -0.71926,-0.0153 -1.53035,-0.44381 -2.1884,0.0153 -1.08655,0.76518 -2.06598,1.65278 -3.15253,2.41796 -0.0459,-0.45911 -0.0765,-0.91821 -0.10712,-1.36202 -2.80055,0.21425 -5.6317,0.35199 -8.43225,0.18365 0.56623,-0.50502 1.19368,-0.99473 1.94355,-1.19368 1.49974,-0.35198 3.0454,-0.19895 4.56045,-0.27546 -0.50502,-0.59684 -1.33141,-0.68866 -2.02007,-0.97943 0.12243,-0.21425 0.24486,-0.4438 0.36729,-0.65805 1.40792,0.16834 2.64751,1.01003 4.07074,1.08655 1.08655,-1.36201 1.92824,-2.93828 2.66281,-4.51454 0.56623,-1.86703 1.23959,-3.73406 1.40793,-5.67761 -1.16307,-0.78048 -2.55569,-1.11716 -3.74937,-1.82112 -0.59683,-0.62745 -0.70396,-1.53036 -0.74987,-2.34144 -1.53035,-1.01004 -2.28023,-2.80055 -3.82588,-3.79528 -0.88761,-0.65805 -1.92825,-1.10185 -2.78525,-1.80582 -1.20897,-0.93351 -2.70872,-1.42323 -3.9024,-2.38735 -0.4285,-0.27546 -0.81108,-0.76518 -1.39262,-0.76518 -1.16307,-0.0765 -2.41796,-0.24485 -3.25965,-1.14776 -2.37205,-2.29553 -4.85122,-4.91243 -5.50927,-8.27921 -0.76518,-3.65755 0.41319,-7.33039 0.59684,-10.98794 0.15303,-2.76994 1.63747,-5.24911 1.91294,-8.00375 0.53562,-2.43326 0.12243,-5.01956 0.96412,-7.40691 0.27546,-0.73457 -0.12243,-1.48444 -0.36729,-2.15779 -0.50501,0.42849 -0.97942,1.02533 -1.69869,1.08655 -1.11716,-0.0765 -2.11188,-0.76518 -2.6169,-1.75991 -0.79579,-1.05594 -0.53563,-2.43326 -0.27547,-3.62694 -1.19367,-0.0612 -2.37204,0.26016 -3.56572,0.30607 0.26016,-0.78048 0.78048,-1.39262 1.39262,-1.9282403 0.4132,-0.30607 0.36729,-0.857 0.45911,-1.33141 0.24486,-0.15303 0.47441,-0.32137 0.71927,-0.47441 0.0765,-0.8723 0.16833,-1.7446 0.36728,-2.6016 0.27546,0.0306 0.55093,0.0459 0.81109,0.0765 0.0306,-0.53563 0.0459,-1.07125 0.0918,-1.59157 0.32137,0.22955 0.65805,0.45911 1.01003,0.67336 0.0153,-0.61214 -0.0765,-1.23959 -0.16834,-1.85173 0.50502,0.27546 0.96413,0.59684 1.43854,0.90291 0,-0.65805 -0.0153,-1.31611 -0.0153,-1.97416 m 29.10732,63.8769503 c -0.73457,0.65805 -1.80582,0.94882 -2.26492,1.86703 -0.76518,1.27019 -1.3008,2.66281 -1.89764,4.00953 1.16307,0.29076 2.41796,0.56623 3.61163,0.27546 1.23959,-0.47441 1.89764,-1.79051 2.18841,-2.99949 0.26016,-1.53036 0.55093,-3.07601 0.39789,-4.63697 -0.73457,0.41319 -1.40792,0.93351 -2.03537,1.48444 z" inkscape:connector-curvature="0" style="fill:#000000;stroke:#000000;stroke-width:0.01434706"/>
</svg>