<?xml version="1.0" encoding="UTF-8" standalone="no"?>
<svg
   xmlns:dc="http://purl.org/dc/elements/1.1/"
   xmlns:cc="http://creativecommons.org/ns#"
   xmlns:rdf="http://www.w3.org/1999/02/22-rdf-syntax-ns#"
   xmlns:svg="http://www.w3.org/2000/svg"
   xmlns="http://www.w3.org/2000/svg"
   xml:space="preserve"
   enable-background="new 0 0 100 76.179"
   viewBox="0 0 48 0"
   height="96"
   width="96"
   y="0px"
   x="0px"
   id="Layer_1"
   version="1.0"><metadata
     id="metadata19"><rdf:RDF><cc:Work
         rdf:about=""><dc:format>image/svg+xml</dc:format><dc:type
           rdf:resource="http://purl.org/dc/dcmitype/StillImage" /><dc:title></dc:title></cc:Work></rdf:RDF></metadata><defs
     id="defs17" /><g
     transform="matrix(0.9,0,0,0.9,3,175.8801)"
     id="g3347"><path
       d="m 67.457,-174.984 c 0,-2.875 2.327,-5.195 5.203,-5.195 2.875,0 5.199,2.32 5.199,5.195 0,2.876 -2.324,5.203 -5.199,5.203 -2.876,0 -5.203,-2.327 -5.203,-5.203"
       id="path3" /><path
       d="m 74.601,-168.279 c 0,0 4.587,-0.442 4.587,4.585 -0.087,0 0,13.665 0,13.665 0,0 0.173,2.294 -3.09,2.821 0.091,-0.084 -14.461,3.175 -14.461,3.175 0,0 -1.061,0.091 -1.41,1.151 0,0.084 -4.057,14.899 -4.057,14.899 0,0 -0.438,2.387 -3.35,1.674 0.267,0 -2.999,-0.175 -2.203,-3.701 0.085,0.091 3.964,-16.229 3.964,-16.229 0,0 0.442,-3.08 4.056,-3.789 0.091,0 9.792,-1.94 9.792,-1.94 0,0 0.88,-0.263 0.613,-0.968 0,-0.088 -1.495,-4.143 -1.495,-4.143 0,0 -0.444,-0.709 -1.409,-0.176 0.088,0 -9.704,4.757 -9.704,4.757 0,0 -2.558,1.151 -3.613,-1.231 0.084,0 -1.677,-2.645 1.056,-4.322 0.095,-0.091 17.282,-9.521 17.282,-9.521 0,0 1.325,-0.798 3.442,-0.707"
       id="path5" /><path
       d="m 13.05,-131.333 c -7.21,0 -13.05,5.842 -13.05,13.05 0,7.208 5.84,13.051 13.05,13.051 7.209,0 13.053,-5.842 13.053,-13.051 0,-7.209 -5.844,-13.05 -13.053,-13.05 z m 0,18.341 c -2.922,0 -5.287,-2.367 -5.287,-5.29 0,-2.927 2.364,-5.29 5.287,-5.29 2.925,0 5.292,2.363 5.292,5.29 0.001,2.922 -2.366,5.29 -5.292,5.29 z"
       id="path7" /><path
       d="m 79.188,-145.622 c -11.493,0 -20.817,9.324 -20.817,20.811 0,11.502 9.324,20.812 20.817,20.812 11.491,0 20.812,-9.31 20.812,-20.812 0,-11.487 -9.321,-20.811 -20.812,-20.811 z m 0,28.834 c -4.435,0 -8.029,-3.592 -8.029,-8.023 0,-4.431 3.595,-8.02 8.029,-8.02 4.43,0 8.024,3.588 8.024,8.02 0,4.432 -3.594,8.023 -8.024,8.023 z"
       id="path9" /><path
       d="m 52.759,-151.127 -6.333,-6.333 c -0.435,-0.435 -1.198,-0.435 -1.633,0 l -1.242,1.242 c -0.217,0.217 -0.337,0.507 -0.337,0.816 0,0.309 0.12,0.599 0.337,0.816 l 1.321,1.321 c 0.378,0.378 0.378,0.993 0,1.372 l -0.999,0.999 c -0.351,0.351 -0.74,0.248 -0.865,-0.235 l -0.623,-2.379 c -0.158,-0.604 -0.795,-1.097 -1.42,-1.097 l -39.511,0 c -0.312,0 -0.576,0.12 -0.744,0.337 -0.168,0.218 -0.218,0.504 -0.139,0.806 l 5.364,20.51 c 0.158,0.605 0.795,1.097 1.42,1.097 l 39.511,0 c 0.312,0 0.576,-0.119 0.744,-0.337 0.168,-0.218 0.218,-0.504 0.139,-0.806 l -3.296,-12.605 c -0.139,-0.529 0.071,-1.303 0.458,-1.69 l 2.28,-2.281 c 0.365,-0.364 1.007,-0.364 1.372,0 l 1.321,1.321 c 0.434,0.434 1.198,0.434 1.632,0 l 1.243,-1.243 c 0.217,-0.217 0.337,-0.507 0.337,-0.816 0,-0.309 -0.12,-0.597 -0.337,-0.815 z"
       id="path11" /><path
       d="m 49.541,-126.199 -0.942,-3.604 c -0.158,-0.604 -0.795,-1.097 -1.42,-1.097 l -24.758,0 c -0.321,0 -0.542,0.101 -0.624,0.285 -0.081,0.185 -0.006,0.417 0.21,0.654 l 3.735,4.091 c 0.411,0.448 1.239,0.813 1.847,0.813 l 21.068,0 c 0.312,0 0.576,-0.119 0.744,-0.337 0.169,-0.217 0.219,-0.503 0.14,-0.805 z"
       id="path13" /></g></svg>