<?xml version="1.0" encoding="UTF-8" standalone="no"?>
<svg
   xmlns:dc="http://purl.org/dc/elements/1.1/"
   xmlns:cc="http://creativecommons.org/ns#"
   xmlns:rdf="http://www.w3.org/1999/02/22-rdf-syntax-ns#"
   xmlns:svg="http://www.w3.org/2000/svg"
   xmlns="http://www.w3.org/2000/svg"
   xmlns:sodipodi="http://sodipodi.sourceforge.net/DTD/sodipodi-0.dtd"
   xmlns:inkscape="http://www.inkscape.org/namespaces/inkscape"
   version="1.1"
   id="Layer_1"
   x="0px"
   y="0px"
   width="96"
   height="96"
   viewBox="0 0 96 96"
   enable-background="new 0 0 91.333 100"
   xml:space="preserve"
   inkscape:version="0.91 r13725"
   sodipodi:docname="plants.svg"><metadata
     id="metadata13"><rdf:RDF><cc:Work
         rdf:about=""><dc:format>image/svg+xml</dc:format><dc:type
           rdf:resource="http://purl.org/dc/dcmitype/StillImage" /><dc:title></dc:title></cc:Work></rdf:RDF></metadata><defs
     id="defs11" /><sodipodi:namedview
     pagecolor="#ffffff"
     bordercolor="#666666"
     borderopacity="1"
     objecttolerance="10"
     gridtolerance="10"
     guidetolerance="10"
     inkscape:pageopacity="0"
     inkscape:pageshadow="2"
     inkscape:window-width="958"
     inkscape:window-height="537"
     id="namedview9"
     showgrid="false"
     inkscape:zoom="2.36"
     inkscape:cx="-7.2996016"
     inkscape:cy="50"
     inkscape:window-x="0"
     inkscape:window-y="0"
     inkscape:window-maximized="0"
     inkscape:current-layer="Layer_1" /><g
     id="g3341"
     transform="matrix(0.89999473,0,0,0.89999473,6.900316,6.5999787)"><path
       inkscape:connector-curvature="0"
       id="path3"
       d="m 81.502,55.479 c -14.446,17.343 -29.439,7.493 -34.332,3.457 3.772,-4.121 5.505,-6.361 12.054,-11.758 6.771,2.767 18.887,-2.487 18.887,-2.487 -8.151,2.136 -14.382,0.925 -16.595,0.339 0.475,-0.371 8.516,-6.191 10.95,-9.557 6.731,0.208 12.291,-5.573 12.291,-5.573 -0.182,-0.156 -3.587,2.454 -10.025,2.767 6.666,-9.792 6.367,-18.802 6.367,-18.802 0,0 -2.461,8.223 -8.724,17.239 -1.283,-6.399 0.352,-10.755 0.169,-10.898 0,0 -4.362,7.187 -2.351,13.795 -3.424,3.913 -8.821,7.292 -10.813,8.808 -0.156,-0.41 -2.239,-7.239 -0.215,-17.324 0,0 -5.488,12.682 -2.051,19.257 -4.205,3.236 -5.332,4.03 -12.356,11.881 C 28.853,44.716 42.509,23.42 54.419,18.459 66.672,13.35 71.776,14.379 83.006,-4 95.304,14.216 93.287,41.338 81.502,55.479 Z" /><path
       inkscape:connector-curvature="0"
       id="path5"
       d="m 13.623,53.629 c 7.236,3.308 12.252,7.8 15.699,12.097 0.042,-0.124 0.095,-0.228 0.134,-0.371 C 36.005,41.781 0,45.062 0,45.062 c 0,0 4.974,7.656 7.747,16.003 3.207,9.674 16.312,17.714 21.022,6.224 -3.401,-4.578 -8.265,-9.584 -15.146,-13.66 z" /><path
       inkscape:connector-curvature="0"
       id="path7"
       d="m 47.17,58.936 c -0.042,-0.053 -2.487,-2.24 -2.448,-2.292 -6.172,6.797 -8.578,12.604 -9.164,20.006 -0.934,-2.545 -2.802,-6.621 -6.237,-10.924 -0.163,0.566 -0.352,1.074 -0.553,1.562 3.659,4.928 5.075,11.641 5.908,13.841 0,6.146 0.674,9.219 1.214,14.349 0,0 3.308,1.953 4.229,-1.692 -1.868,-3.087 -3.701,-24.33 7.051,-34.85 z" /></g></svg>