<?xml version="1.0" encoding="UTF-8" standalone="no"?>
<svg
   xmlns:osb="http://www.openswatchbook.org/uri/2009/osb"
   xmlns:dc="http://purl.org/dc/elements/1.1/"
   xmlns:cc="http://creativecommons.org/ns#"
   xmlns:rdf="http://www.w3.org/1999/02/22-rdf-syntax-ns#"
   xmlns:svg="http://www.w3.org/2000/svg"
   xmlns="http://www.w3.org/2000/svg"
   xmlns:xlink="http://www.w3.org/1999/xlink"
   xmlns:sodipodi="http://sodipodi.sourceforge.net/DTD/sodipodi-0.dtd"
   xmlns:inkscape="http://www.inkscape.org/namespaces/inkscape"
   version="1.1"
   id="Layer_1"
   x="0px"
   y="0px"
   width="100px"
   height="100px"
   viewBox="0 0 100 100"
   enable-background="new 0 0 100 100"
   xml:space="preserve"
   inkscape:version="0.91 r13725"
   sodipodi:docname="beekeeping_equipment.svg"><metadata
     id="metadata9"><rdf:RDF><cc:Work
         rdf:about=""><dc:format>image/svg+xml</dc:format><dc:type
           rdf:resource="http://purl.org/dc/dcmitype/StillImage" /><dc:title></dc:title></cc:Work></rdf:RDF></metadata><defs
     id="defs7"><linearGradient
       id="linearGradient6013"><stop
         style="stop-color:#ff0000;stop-opacity:1;"
         offset="0"
         id="stop6015" /></linearGradient><linearGradient
       id="linearGradient4573"
       osb:paint="solid"><stop
         style="stop-color:#000000;stop-opacity:1;"
         offset="0"
         id="stop4575" /></linearGradient><linearGradient
       inkscape:collect="always"
       id="linearGradient4567"><stop
         style="stop-color:#e3443c;stop-opacity:1"
         offset="0"
         id="stop4555" /><stop
         style="stop-color:#fb7468;stop-opacity:1"
         offset="1"
         id="stop4557" /></linearGradient><linearGradient
       inkscape:collect="always"
       xlink:href="#linearGradient4567"
       id="linearGradient4559"
       x1="49.685051"
       y1="99.74057"
       x2="49.416084"
       y2="-0.033394534"
       gradientUnits="userSpaceOnUse" /></defs><sodipodi:namedview
     pagecolor="#ffffff"
     bordercolor="#666666"
     borderopacity="1"
     objecttolerance="10"
     gridtolerance="10"
     guidetolerance="10"
     inkscape:pageopacity="0"
     inkscape:pageshadow="2"
     inkscape:window-width="1256"
     inkscape:window-height="691"
     id="namedview5"
     showgrid="false"
     inkscape:zoom="3.337544"
     inkscape:cx="20.551752"
     inkscape:cy="54.735813"
     inkscape:window-x="0"
     inkscape:window-y="0"
     inkscape:window-maximized="0"
     inkscape:current-layer="Layer_1" /><circle
     style="opacity:1;fill:#ffffff;fill-opacity:1;fill-rule:nonzero;stroke:none;stroke-width:5.99881887;stroke-linecap:butt;stroke-linejoin:miter;stroke-miterlimit:4;stroke-dasharray:none;stroke-opacity:1"
     id="path3561"
     cx="50"
     cy="34.345039"
     r="30" /><path
     d="M 50.001953 0 C 30.108953 0 13.980469 17.104531 13.980469 36.019531 C 13.980469 62.663531 49.260953 99.667094 50.001953 99.996094 C 50.740953 100.32509 86.019531 62.663531 86.019531 36.019531 C 86.019531 16.118531 69.894953 -4.7369516e-15 50.001953 0 z M 50 8.6269531 A 26.718199 26.718199 0 0 1 76.71875 35.34375 A 26.718199 26.718199 0 0 1 50 62.0625 A 26.718199 26.718199 0 0 1 23.28125 35.34375 A 26.718199 26.718199 0 0 1 50 8.6269531 z "
     id="path3"
     style="fill:url(#linearGradient4559);stroke:#000000;fill-opacity:1;stroke-width:0.5;stroke-miterlimit:4;stroke-dasharray:none;stroke-opacity:1" /><g
     id="g4848"
     transform="matrix(0.42503573,0,0,0.42503573,30.590071,15.937779)"><path
       id="path4836"
       d="m 81.502,59.479 c -14.446,17.343 -29.439,7.493 -34.332,3.457 3.772,-4.121 5.505,-6.361 12.054,-11.758 6.771,2.767 18.887,-2.487 18.887,-2.487 -8.151,2.136 -14.382,0.925 -16.595,0.339 0.475,-0.371 8.516,-6.191 10.95,-9.557 6.731,0.208 12.291,-5.573 12.291,-5.573 -0.182,-0.156 -3.587,2.454 -10.025,2.767 6.666,-9.792 6.367,-18.802 6.367,-18.802 0,0 -2.461,8.223 -8.724,17.239 -1.283,-6.399 0.352,-10.755 0.169,-10.898 0,0 -4.362,7.187 -2.351,13.795 -3.424,3.913 -8.821,7.292 -10.813,8.808 -0.156,-0.41 -2.239,-7.239 -0.215,-17.324 0,0 -5.488,12.682 -2.051,19.257 -4.205,3.236 -5.332,4.03 -12.356,11.881 C 28.853,48.716 42.509,27.42 54.419,22.459 66.672,17.35 71.776,18.379 83.006,0 95.304,18.216 93.287,45.338 81.502,59.479 Z"
       inkscape:connector-curvature="0" /><path
       id="path4838"
       d="m 13.623,57.629 c 7.236,3.308 12.252,7.8 15.699,12.097 0.042,-0.124 0.095,-0.228 0.134,-0.371 C 36.005,45.781 0,49.062 0,49.062 c 0,0 4.974,7.656 7.747,16.003 3.207,9.674 16.312,17.714 21.022,6.224 -3.401,-4.578 -8.265,-9.584 -15.146,-13.66 z"
       inkscape:connector-curvature="0" /><path
       id="path4840"
       d="m 47.17,62.936 c -0.042,-0.053 -2.487,-2.24 -2.448,-2.292 -6.172,6.797 -8.578,12.604 -9.164,20.006 -0.934,-2.545 -2.802,-6.621 -6.237,-10.924 -0.163,0.566 -0.352,1.074 -0.553,1.562 3.659,4.928 5.075,11.641 5.908,13.841 0,6.146 0.674,9.219 1.214,14.349 0,0 3.308,1.953 4.229,-1.692 -1.868,-3.087 -3.701,-24.33 7.051,-34.85 z"
       inkscape:connector-curvature="0" /></g></svg>