<?xml version="1.0" encoding="UTF-8" standalone="no"?>
<svg
   xmlns:osb="http://www.openswatchbook.org/uri/2009/osb"
   xmlns:dc="http://purl.org/dc/elements/1.1/"
   xmlns:cc="http://creativecommons.org/ns#"
   xmlns:rdf="http://www.w3.org/1999/02/22-rdf-syntax-ns#"
   xmlns:svg="http://www.w3.org/2000/svg"
   xmlns="http://www.w3.org/2000/svg"
   xmlns:xlink="http://www.w3.org/1999/xlink"
   xmlns:sodipodi="http://sodipodi.sourceforge.net/DTD/sodipodi-0.dtd"
   xmlns:inkscape="http://www.inkscape.org/namespaces/inkscape"
   version="1.1"
   id="Layer_1"
   x="0px"
   y="0px"
   width="100px"
   height="100px"
   viewBox="0 0 100 100"
   enable-background="new 0 0 100 100"
   xml:space="preserve"
   inkscape:version="0.91 r13725"
   sodipodi:docname="beekeeping_equipment.svg"><metadata
     id="metadata9"><rdf:RDF><cc:Work
         rdf:about=""><dc:format>image/svg+xml</dc:format><dc:type
           rdf:resource="http://purl.org/dc/dcmitype/StillImage" /><dc:title></dc:title></cc:Work></rdf:RDF></metadata><defs
     id="defs7"><linearGradient
       id="linearGradient6013"><stop
         style="stop-color:#ff0000;stop-opacity:1;"
         offset="0"
         id="stop6015" /></linearGradient><linearGradient
       id="linearGradient4573"
       osb:paint="solid"><stop
         style="stop-color:#000000;stop-opacity:1;"
         offset="0"
         id="stop4575" /></linearGradient><linearGradient
       inkscape:collect="always"
       id="linearGradient4567"><stop
         style="stop-color:#e3443c;stop-opacity:1"
         offset="0"
         id="stop4555" /><stop
         style="stop-color:#fb7468;stop-opacity:1"
         offset="1"
         id="stop4557" /></linearGradient><linearGradient
       inkscape:collect="always"
       xlink:href="#linearGradient4567"
       id="linearGradient4559"
       x1="49.685051"
       y1="99.74057"
       x2="49.416084"
       y2="-0.033394534"
       gradientUnits="userSpaceOnUse" /></defs><sodipodi:namedview
     pagecolor="#ffffff"
     bordercolor="#666666"
     borderopacity="1"
     objecttolerance="10"
     gridtolerance="10"
     guidetolerance="10"
     inkscape:pageopacity="0"
     inkscape:pageshadow="2"
     inkscape:window-width="1256"
     inkscape:window-height="691"
     id="namedview5"
     showgrid="false"
     inkscape:zoom="3.337544"
     inkscape:cx="20.551752"
     inkscape:cy="54.735813"
     inkscape:window-x="0"
     inkscape:window-y="0"
     inkscape:window-maximized="0"
     inkscape:current-layer="Layer_1" /><circle
     style="opacity:1;fill:#ffffff;fill-opacity:1;fill-rule:nonzero;stroke:none;stroke-width:5.99881887;stroke-linecap:butt;stroke-linejoin:miter;stroke-miterlimit:4;stroke-dasharray:none;stroke-opacity:1"
     id="path3561"
     cx="50"
     cy="34.345039"
     r="30" /><path
     d="M 50.001953 0 C 30.108953 0 13.980469 17.104531 13.980469 36.019531 C 13.980469 62.663531 49.260953 99.667094 50.001953 99.996094 C 50.740953 100.32509 86.019531 62.663531 86.019531 36.019531 C 86.019531 16.118531 69.894953 -4.7369516e-15 50.001953 0 z M 50 8.6269531 A 26.718199 26.718199 0 0 1 76.71875 35.34375 A 26.718199 26.718199 0 0 1 50 62.0625 A 26.718199 26.718199 0 0 1 23.28125 35.34375 A 26.718199 26.718199 0 0 1 50 8.6269531 z "
     id="path3"
     style="fill:url(#linearGradient4559);stroke:#000000;fill-opacity:1;stroke-width:0.5;stroke-miterlimit:4;stroke-dasharray:none;stroke-opacity:1" /><g
     id="g4938"
     transform="matrix(0.51504286,0,0,0.51504286,24.24799,10.081765)"><path
       id="path4940"
       d="m 48.092,40.569 c -2.865,0.719 -4.609,3.626 -3.887,6.491 0.717,2.867 3.623,4.608 6.492,3.889 2.867,-0.717 4.607,-3.625 3.886,-6.492 -0.718,-2.868 -3.622,-4.607 -6.491,-3.888 z"
       inkscape:connector-curvature="0"
       style="fill:#000000" /><path
       id="path4942"
       d="m 93.314,38.814 c 0,0 -17.641,-6.13 -31.391,-13.551 C 48.172,17.841 33.368,6.459 33.368,6.459 c -2.285,0.165 -2.004,3.709 -2.004,3.709 -2.65,11.935 -9.045,22.25 -9.045,22.25 0,0 -5.111,11.007 -13.633,19.775 0,0 -3.117,1.709 -2,3.709 0,0 17.639,6.125 31.389,13.547 3.48,1.881 7.025,4.01 10.387,6.148 l 3.218,-0.441 3.449,-3.447 8.605,-0.711 1.156,-5.367 6.148,0.734 -1.07,-5.812 7.76,1.635 c 0.545,-1.146 5.549,-11.4 13.582,-19.667 0.001,-10e-4 3.12,-1.711 2.004,-3.707 z M 61.506,50.839 c 0.703,2.815 -1.004,5.667 -3.82,6.375 -2.738,0.684 -5.512,-0.912 -6.312,-3.588 l -0.012,0.006 c 0.555,2.736 -1.134,5.449 -3.873,6.137 -2.814,0.705 -5.67,-1.004 -6.373,-3.818 -0.498,-1.992 0.209,-4.002 1.664,-5.255 -0.201,0.074 -0.404,0.14 -0.617,0.195 -2.818,0.707 -5.67,-1.005 -6.373,-3.82 -0.709,-2.812 1,-5.671 3.816,-6.375 1.217,-0.307 2.443,-0.159 3.496,0.334 -0.322,-0.484 -0.57,-1.03 -0.721,-1.629 -0.703,-2.814 1.008,-5.67 3.822,-6.375 2.814,-0.703 5.669,1.005 6.376,3.82 0.191,0.772 0.201,1.55 0.059,2.282 0.701,-1.032 1.766,-1.822 3.074,-2.152 2.816,-0.706 5.67,1.004 6.375,3.82 0.705,2.814 -1.004,5.668 -3.818,6.376 -0.018,0.003 -0.035,0.006 -0.055,0.01 1.579,0.579 2.848,1.902 3.292,3.657 z"
       inkscape:connector-curvature="0"
       style="fill:#000000" /><path
       id="path4944"
       d="m 66.529,75.598 c 0,-1.465 -1.188,-2.654 -2.654,-2.654 -1.463,0 -2.65,1.189 -2.65,2.654 0,1.463 1.188,2.65 2.65,2.65 1.467,0 2.654,-1.187 2.654,-2.65 z"
       inkscape:connector-curvature="0"
       style="fill:#000000" /><circle
       id="circle4946"
       r="2.6530001"
       cy="81.901001"
       cx="69.181999"
       style="fill:#000000" /><path
       id="path4948"
       d="m 76.607,75.598 c 0,-1.465 -1.188,-2.654 -2.65,-2.654 -1.469,0 -2.652,1.189 -2.652,2.654 0,1.463 1.184,2.65 2.652,2.65 1.463,0 2.65,-1.187 2.65,-2.65 z"
       inkscape:connector-curvature="0"
       style="fill:#000000" /><path
       id="path4950"
       d="m 77.67,83.941 c -1.465,0 -2.654,1.188 -2.654,2.652 0,1.467 1.189,2.652 2.654,2.652 1.461,0 2.65,-1.186 2.65,-2.652 0,-1.464 -1.189,-2.652 -2.65,-2.652 z"
       inkscape:connector-curvature="0"
       style="fill:#000000" /><path
       id="path4952"
       d="m 65.205,88.236 c -1.467,0 -2.654,1.188 -2.654,2.652 0,1.464 1.188,2.652 2.654,2.652 1.461,0 2.65,-1.188 2.65,-2.652 0,-1.464 -1.189,-2.652 -2.65,-2.652 z"
       inkscape:connector-curvature="0"
       style="fill:#000000" /><path
       id="path4954"
       d="m 58.314,81.293 c -1.465,0 -2.652,1.184 -2.652,2.648 0,1.467 1.188,2.652 2.652,2.652 1.464,0 2.652,-1.186 2.652,-2.652 10e-4,-1.464 -1.187,-2.648 -2.652,-2.648 z"
       inkscape:connector-curvature="0"
       style="fill:#000000" /><circle
       id="circle4956"
       r="2.652"
       cy="90.889"
       cx="49.827"
       style="fill:#000000" /></g></svg>