<?xml version="1.0" encoding="UTF-8" standalone="no"?>
<svg
   xmlns:osb="http://www.openswatchbook.org/uri/2009/osb"
   xmlns:dc="http://purl.org/dc/elements/1.1/"
   xmlns:cc="http://creativecommons.org/ns#"
   xmlns:rdf="http://www.w3.org/1999/02/22-rdf-syntax-ns#"
   xmlns:svg="http://www.w3.org/2000/svg"
   xmlns="http://www.w3.org/2000/svg"
   xmlns:xlink="http://www.w3.org/1999/xlink"
   xml:space="preserve"
   enable-background="new 0 0 100 100"
   viewBox="0 0 100 100"
   height="100px"
   width="100px"
   y="0px"
   x="0px"
   id="Layer_1"
   version="1.1"><metadata
     id="metadata9"><rdf:RDF><cc:Work
         rdf:about=""><dc:format>image/svg+xml</dc:format><dc:type
           rdf:resource="http://purl.org/dc/dcmitype/StillImage" /><dc:title></dc:title></cc:Work></rdf:RDF></metadata><defs
     id="defs7"><linearGradient
       osb:paint="solid"
       id="linearGradient4573"><stop
         id="stop4575"
         offset="0"
         style="stop-color:#000000;stop-opacity:1;" /></linearGradient><linearGradient
       id="linearGradient4567"><stop
         id="stop4555"
         offset="0"
         style="stop-color:#e3443c;stop-opacity:1" /><stop
         id="stop4557"
         offset="1"
         style="stop-color:#fb7468;stop-opacity:1" /></linearGradient><linearGradient
       gradientUnits="userSpaceOnUse"
       y2="-0.033394534"
       x2="49.416084"
       y1="99.74057"
       x1="49.685051"
       id="linearGradient4559"
       xlink:href="#linearGradient4567" /></defs><circle
     r="30"
     cy="34.345039"
     cx="50"
     id="path3561"
     style="opacity:1;fill:#ffffff;fill-opacity:1;fill-rule:nonzero;stroke:none;stroke-width:5.99881887;stroke-linecap:butt;stroke-linejoin:miter;stroke-miterlimit:4;stroke-dasharray:none;stroke-opacity:1" /><path
     style="fill:url(#linearGradient4559);stroke:#000000;fill-opacity:1;stroke-width:0.5;stroke-miterlimit:4;stroke-dasharray:none;stroke-opacity:1"
     id="path3"
     d="M 50.001953 0 C 30.108953 0 13.980469 17.104531 13.980469 36.019531 C 13.980469 62.663531 49.260953 99.667094 50.001953 99.996094 C 50.740953 100.32509 86.019531 62.663531 86.019531 36.019531 C 86.019531 16.118531 69.894953 -4.7369516e-15 50.001953 0 z M 50 8.6269531 A 26.718199 26.718199 0 0 1 76.71875 35.34375 A 26.718199 26.718199 0 0 1 50 62.0625 A 26.718199 26.718199 0 0 1 23.28125 35.34375 A 26.718199 26.718199 0 0 1 50 8.6269531 z " /><g
     transform="matrix(0.51088754,0,0,0.51088754,24.456083,5.7083177)"
     id="g5507"><path
       style="fill:#000000"
       d="m 88.895,48.104 c -2.8,-2.34 -4.777,-3.18 -6.154,-3.322 l 0.582,-2.597 c 0.529,-2.353 -0.951,-4.689 -3.305,-5.219 -2.354,-0.526 -4.688,0.953 -5.215,3.308 l -0.484,2.153 0.232,-2.624 c 0.214,-2.385 -1.545,-4.487 -3.926,-4.697 -1.772,-0.159 -3.391,0.778 -4.189,2.248 l 0.309,-4.127 c 0.198,-2.646 -1.786,-4.949 -4.432,-5.145 -2.025,-0.153 -3.85,0.977 -4.682,2.699 -0.49,-2.131 -2.398,-3.724 -4.679,-3.724 -1.851,0 -3.454,1.048 -4.257,2.581 -0.879,-0.988 -2.158,-1.605 -3.584,-1.605 -2.652,0 -4.801,2.146 -4.801,4.799 l 0,1.415 c -0.973,-1.749 -2.979,-2.768 -5.057,-2.392 -2.607,0.474 -4.339,2.973 -3.865,5.585 l 0.898,4.939 c -1,-1.167 -2.74,-1.704 -4.481,-1.241 -2.333,0.615 -3.78,2.794 -3.233,4.857 l 0.562,2.122 c -0.754,-0.313 -1.643,-0.39 -2.535,-0.155 -1.965,0.521 -3.184,2.351 -2.725,4.096 l 0.111,0.421 c -1.275,0.459 -2.129,1.624 -1.999,2.886 l 0.23,2.268 c -0.435,-0.249 -0.968,-0.37 -1.53,-0.314 -1.307,0.135 -2.271,1.181 -2.153,2.342 l 0.33,3.235 c -0.464,-0.329 -1.205,-0.499 -2.017,-0.415 -1.308,0.136 -2.304,0.87 -2.225,1.647 l 0.195,1.908 -3.319,1.444 c -0.716,0.311 -0.868,1.541 -0.345,2.746 0.525,1.205 1.528,1.927 2.244,1.616 l 1.926,-0.84 0.077,0.754 c 0.079,0.777 1.202,1.295 2.51,1.163 0.956,-0.096 1.744,-0.519 2.067,-1.04 0.44,0.707 1.326,1.138 2.299,1.04 0.812,-0.082 1.491,-0.519 1.862,-1.114 0.63,0.729 1.661,1.153 2.78,1.039 1.28,-0.132 2.309,-0.931 2.69,-1.956 0.853,0.606 2.023,0.833 3.194,0.523 1.521,-0.402 2.592,-1.595 2.785,-2.916 0.989,0.607 2.285,0.82 3.58,0.477 1.477,-0.39 2.598,-1.404 3.084,-2.62 0.975,0.604 2.169,0.863 3.385,0.639 1.805,-0.325 3.188,-1.623 3.715,-3.252 1.746,-0.086 3.247,-1.11 4.015,-2.574 0.88,0.983 2.158,1.605 3.584,1.605 1.185,0 2.269,-0.429 3.106,-1.138 0.796,1.151 2.088,1.949 3.596,2.061 1.729,0.131 3.309,-0.672 4.254,-1.983 l -0.067,0.764 c -0.213,2.38 1.545,4.483 3.927,4.693 0.855,0.078 1.675,-0.104 2.384,-0.474 0.597,0.962 1.562,1.692 2.754,1.963 1.88,0.421 3.749,-0.44 4.692,-2.003 1.285,0.989 2.84,1.841 4.725,2.45 11.795,3.846 13.922,-14.859 6.575,-20.999 z M 83.941,58.71 c -2.491,0 -4.509,-2.02 -4.509,-4.511 0,-2.488 2.018,-4.506 4.509,-4.506 2.49,0 4.509,2.018 4.509,4.506 0,2.491 -2.018,4.511 -4.509,4.511 z"
       id="path5509" /></g></svg>