<svg xmlns="http://www.w3.org/2000/svg" xmlns:xlink="http://www.w3.org/1999/xlink" version="1.1" id="Layer_1" x="0px" y="0px" width="100px" height="86.687px" viewBox="0 0 100 86.687" enable-background="new 0 0 100 86.687" xml:space="preserve">
<path d="M82.324,82.051l3.972,4.616l-73.386,0.02l0.898-5.671l8.06-4.479l-1.25-9.492l10.69-0.938l0.553-4.936l12.422-1.067  L45,51.228l2.135-2.839l4.967,1.064l0.573,4.727l7.949-0.494l0.501,8.945l8.939,3.477l0.501,6.953  c0.769,1.067,4.668-0.639,5.345,0.352c0.69,1.002-0.618-0.977,0,0c-0.872,4.121,5.222,4.824,5.222,4.824L82.324,82.051z"/>
<path d="M72.617,52.24l-3.743-1.273c-1.276,0.98-1.745,2.002-1.381,3.07l1.875,2.154l2.826-0.943  c1.021-0.339,1.373-0.983,1.067-1.889C73.157,53.041,72.956,52.656,72.617,52.24z"/>
<path d="M70.234,42.282c-0.827-0.4-1.68-0.466-2.604-0.163c-0.488,0.163-0.996,0.485-1.562,0.974l0.15,4.434l4.297-0.534  c1.126-1.282,1.549-2.324,1.289-3.125C71.582,43.229,71.067,42.695,70.234,42.282z"/>
<path d="M83.411,48.441l0.026,0.088c-0.163,0.055-0.938-0.124-2.344-0.566c-0.677-0.234-1.36-0.488-2.044-0.756  c-0.971,0.329-1.576,1.299-1.811,2.897c-0.234,1.604-0.078,3.216,0.456,4.831c0.144,0.436,0.481,0.911,1.016,1.458l0.918,0.859  l1.582-0.085c1.784-0.774,2.8-1.204,3.073-1.295c0.645-0.391,1.08-1.198,1.302-2.409c0.222-1.224,0.137-2.383-0.247-3.513  C84.915,48.666,84.277,48.154,83.411,48.441z"/>
<path d="M76.484,61.641l-0.931,3.373c0.689,0.605,1.686,1.028,3.014,1.224l3.139-1.055l-1.589-4.753L76.484,61.641z"/>
<path d="M92.461,55.566l-0.938,3.373c0.696,0.605,1.687,1.021,3.021,1.224l3.139-1.048l-1.596-4.766L92.461,55.566z"/>
<path d="M94.772,80.873l-0.932,3.372c0.697,0.612,1.687,1.022,3.015,1.224L100,84.421l-1.595-4.759L94.772,80.873z"/>
<path d="M93.887,65.912c-1.823-2.025-4.069-2.592-6.751-1.693l-0.397,0.131c-1.27,1.119-2.317,2.76-3.196,4.876  c-0.854,2.024-1.101,3.613-0.717,4.772c0.033,0.091,0.866,0.853,2.48,2.305c1.719,1.406,2.676,2.35,2.878,2.825l5.085-1.706  c0.586-0.195,1.158-0.469,1.699-0.82c0.553-0.352,1.009-0.768,1.387-1.211c0.371-0.442,0.645-0.898,0.82-1.348  c0.162-0.449,0.188-0.879,0.045-1.289C96.12,69.453,95.007,67.175,93.887,65.912z"/>
<path d="M34.551,27.015l-7.806,5.013l-9.407-15.57l1.627-7.422l-3.288-5.121l1.432-0.915L15.182,0L0,9.73l1.927,3.004l1.426-0.915  l3.274,5.114l7.344,1.608l9.434,15.622l-7.838,5.026c0,0,7.643,12.592,12.611,13.949c4.974,1.354,10.332,0.943,10.332,0.943  s2.604-4.697,3.457-9.778C42.812,39.229,34.551,27.015,34.551,27.015z M14.798,16.107l-6.582-1.445l-2.708-4.222l8.027-5.143  l2.702,4.229L14.798,16.107z"/>
</svg>