<svg xmlns="http://www.w3.org/2000/svg" xmlns:xlink="http://www.w3.org/1999/xlink" version="1.1" id="Layer_23" x="0px" y="0px" width="100px" height="100px" viewBox="0 0 100 100" enable-background="new 0 0 100 100" xml:space="preserve">
<g>
	<path fill="#000000" d="M88.895,48.104c-2.8-2.34-4.777-3.18-6.154-3.322l0.582-2.597c0.529-2.353-0.951-4.689-3.305-5.219   c-2.354-0.526-4.688,0.953-5.215,3.308l-0.484,2.153l0.232-2.624c0.214-2.385-1.545-4.487-3.926-4.697   c-1.772-0.159-3.391,0.778-4.189,2.248l0.309-4.127c0.198-2.646-1.786-4.949-4.432-5.145c-2.025-0.153-3.85,0.977-4.682,2.699   c-0.49-2.131-2.398-3.724-4.679-3.724c-1.851,0-3.454,1.048-4.257,2.581c-0.879-0.988-2.158-1.605-3.584-1.605   c-2.652,0-4.801,2.146-4.801,4.799v1.415c-0.973-1.749-2.979-2.768-5.057-2.392c-2.607,0.474-4.339,2.973-3.865,5.585l0.898,4.939   c-1-1.167-2.74-1.704-4.481-1.241c-2.333,0.615-3.78,2.794-3.233,4.857l0.562,2.122c-0.754-0.313-1.643-0.39-2.535-0.155   c-1.965,0.521-3.184,2.351-2.725,4.096l0.111,0.421c-1.275,0.459-2.129,1.624-1.999,2.886l0.23,2.268   c-0.435-0.249-0.968-0.37-1.53-0.314c-1.307,0.135-2.271,1.181-2.153,2.342l0.33,3.235c-0.464-0.329-1.205-0.499-2.017-0.415   c-1.308,0.136-2.304,0.87-2.225,1.647l0.195,1.908l-3.319,1.444c-0.716,0.311-0.868,1.541-0.345,2.746   c0.525,1.205,1.528,1.927,2.244,1.616l1.926-0.84l0.077,0.754c0.079,0.777,1.202,1.295,2.51,1.163   c0.956-0.096,1.744-0.519,2.067-1.04c0.44,0.707,1.326,1.138,2.299,1.04c0.812-0.082,1.491-0.519,1.862-1.114   c0.63,0.729,1.661,1.153,2.78,1.039c1.28-0.132,2.309-0.931,2.69-1.956c0.853,0.606,2.023,0.833,3.194,0.523   c1.521-0.402,2.592-1.595,2.785-2.916c0.989,0.607,2.285,0.82,3.58,0.477c1.477-0.39,2.598-1.404,3.084-2.62   c0.975,0.604,2.169,0.863,3.385,0.639c1.805-0.325,3.188-1.623,3.715-3.252c1.746-0.086,3.247-1.11,4.015-2.574   c0.88,0.983,2.158,1.605,3.584,1.605c1.185,0,2.269-0.429,3.106-1.138c0.796,1.151,2.088,1.949,3.596,2.061   c1.729,0.131,3.309-0.672,4.254-1.983l-0.067,0.764c-0.213,2.38,1.545,4.483,3.927,4.693c0.855,0.078,1.675-0.104,2.384-0.474   c0.597,0.962,1.562,1.692,2.754,1.963c1.88,0.421,3.749-0.44,4.692-2.003c1.285,0.989,2.84,1.841,4.725,2.45   C94.115,72.949,96.242,54.244,88.895,48.104z M83.941,58.71c-2.491,0-4.509-2.02-4.509-4.511c0-2.488,2.018-4.506,4.509-4.506   c2.49,0,4.509,2.018,4.509,4.506C88.45,56.69,86.432,58.71,83.941,58.71z"/>
</g>
</svg>