<svg xmlns="http://www.w3.org/2000/svg" xmlns:xlink="http://www.w3.org/1999/xlink" version="1.1" id="Layer_1" x="0px" y="0px" width="100px" height="100px" viewBox="0 0 100 100" enable-background="new 0 0 100 100" xml:space="preserve">
<path d="M50.433,0.892c-27.119,0-49.102,21.983-49.102,49.102s21.983,49.103,49.102,49.103s49.101-21.984,49.101-49.103  S77.552,0.892,50.433,0.892z M78,51.036C78,54.882,74.882,58,71.036,58H57v14.035C57,75.882,53.882,79,50.036,79h-0.071  C46.118,79,43,75.882,43,72.035V58H27.964C24.118,58,21,54.882,21,51.036v-0.072C21,47.118,24.118,44,27.964,44H43V28.964  C43,25.118,46.118,22,49.964,22h0.071C53.882,22,57,25.118,57,28.964V44h14.036C74.882,44,78,47.118,78,50.964V51.036z"/>
</svg>