<?xml version="1.0" encoding="utf-8"?>
<!-- Generator: Adobe Illustrator 14.0.0, SVG Export Plug-In . SVG Version: 6.00 Build 43363)  -->
<!DOCTYPE svg PUBLIC "-//W3C//DTD SVG 1.0//EN" "http://www.w3.org/TR/2001/REC-SVG-20010904/DTD/svg10.dtd">
<svg version="1.0" id="Layer_1" xmlns="http://www.w3.org/2000/svg" xmlns:xlink="http://www.w3.org/1999/xlink" x="0px" y="0px"
	 width="100px" height="76.179px" viewBox="0 0 100 76.179" enable-background="new 0 0 100 76.179" xml:space="preserve">
<path d="M67.457,5.195C67.457,2.32,69.784,0,72.66,0c2.875,0,5.199,2.32,5.199,5.195c0,2.876-2.324,5.203-5.199,5.203
	C69.784,10.398,67.457,8.071,67.457,5.195"/>
<path d="M74.601,11.9c0,0,4.587-0.442,4.587,4.585c-0.087,0,0,13.665,0,13.665s0.173,2.294-3.09,2.821
	c0.091-0.084-14.461,3.175-14.461,3.175s-1.061,0.091-1.41,1.151c0,0.084-4.057,14.899-4.057,14.899s-0.438,2.387-3.35,1.674
	c0.267,0-2.999-0.175-2.203-3.701c0.085,0.091,3.964-16.229,3.964-16.229s0.442-3.08,4.056-3.789c0.091,0,9.792-1.94,9.792-1.94
	s0.88-0.263,0.613-0.968c0-0.088-1.495-4.143-1.495-4.143s-0.444-0.709-1.409-0.176c0.088,0-9.704,4.757-9.704,4.757
	s-2.558,1.151-3.613-1.231c0.084,0-1.677-2.645,1.056-4.322c0.095-0.091,17.282-9.521,17.282-9.521S72.484,11.809,74.601,11.9"/>
<path d="M13.05,48.846C5.84,48.846,0,54.688,0,61.896s5.84,13.051,13.05,13.051c7.209,0,13.053-5.842,13.053-13.051
	S20.259,48.846,13.05,48.846z M13.05,67.187c-2.922,0-5.287-2.367-5.287-5.29c0-2.927,2.364-5.29,5.287-5.29
	c2.925,0,5.292,2.363,5.292,5.29C18.343,64.819,15.976,67.187,13.05,67.187z"/>
<path d="M79.188,34.557c-11.493,0-20.817,9.324-20.817,20.811c0,11.502,9.324,20.812,20.817,20.812
	c11.491,0,20.812-9.31,20.812-20.812C100,43.881,90.679,34.557,79.188,34.557z M79.188,63.391c-4.435,0-8.029-3.592-8.029-8.023
	s3.595-8.02,8.029-8.02c4.43,0,8.024,3.588,8.024,8.02S83.618,63.391,79.188,63.391z"/>
<path d="M52.759,29.052l-6.333-6.333c-0.435-0.435-1.198-0.435-1.633,0l-1.242,1.242c-0.217,0.217-0.337,0.507-0.337,0.816
	s0.12,0.599,0.337,0.816l1.321,1.321c0.378,0.378,0.378,0.993,0,1.372l-0.999,0.999c-0.351,0.351-0.74,0.248-0.865-0.235
	l-0.623-2.379c-0.158-0.604-0.795-1.097-1.42-1.097H1.454c-0.312,0-0.576,0.12-0.744,0.337c-0.168,0.218-0.218,0.504-0.139,0.806
	l5.364,20.51c0.158,0.605,0.795,1.097,1.42,1.097h39.511c0.312,0,0.576-0.119,0.744-0.337s0.218-0.504,0.139-0.806l-3.296-12.605
	c-0.139-0.529,0.071-1.303,0.458-1.69l2.28-2.281c0.365-0.364,1.007-0.364,1.372,0l1.321,1.321c0.434,0.434,1.198,0.434,1.632,0
	l1.243-1.243c0.217-0.217,0.337-0.507,0.337-0.816S52.976,29.27,52.759,29.052z"/>
<path d="M49.541,53.98l-0.942-3.604c-0.158-0.604-0.795-1.097-1.42-1.097H22.421c-0.321,0-0.542,0.101-0.624,0.285
	c-0.081,0.185-0.006,0.417,0.21,0.654l3.735,4.091c0.411,0.448,1.239,0.813,1.847,0.813h21.068c0.312,0,0.576-0.119,0.744-0.337
	C49.57,54.568,49.62,54.282,49.541,53.98z"/>
</svg>
