<?xml version="1.0" encoding="UTF-8" standalone="no"?>
<svg
   xmlns:osb="http://www.openswatchbook.org/uri/2009/osb"
   xmlns:dc="http://purl.org/dc/elements/1.1/"
   xmlns:cc="http://creativecommons.org/ns#"
   xmlns:rdf="http://www.w3.org/1999/02/22-rdf-syntax-ns#"
   xmlns:svg="http://www.w3.org/2000/svg"
   xmlns="http://www.w3.org/2000/svg"
   xmlns:xlink="http://www.w3.org/1999/xlink"
   xmlns:sodipodi="http://sodipodi.sourceforge.net/DTD/sodipodi-0.dtd"
   xmlns:inkscape="http://www.inkscape.org/namespaces/inkscape"
   version="1.1"
   id="Layer_1"
   x="0px"
   y="0px"
   width="100px"
   height="100px"
   viewBox="0 0 100 100"
   enable-background="new 0 0 100 100"
   xml:space="preserve"
   inkscape:version="0.91 r13725"
   sodipodi:docname="2plus.svg"><sodipodi:namedview
     pagecolor="#ffffff"
     bordercolor="#666666"
     borderopacity="1"
     objecttolerance="10"
     gridtolerance="10"
     guidetolerance="10"
     inkscape:pageopacity="0"
     inkscape:pageshadow="2"
     inkscape:window-width="737"
     inkscape:window-height="480"
     id="namedview15"
     showgrid="false"
     inkscape:zoom="2.36"
     inkscape:cx="50"
     inkscape:cy="50"
     inkscape:window-x="0"
     inkscape:window-y="0"
     inkscape:window-maximized="0"
     inkscape:current-layer="Layer_1" /><metadata
     id="metadata9"><rdf:RDF><cc:Work
         rdf:about=""><dc:format>image/svg+xml</dc:format><dc:type
           rdf:resource="http://purl.org/dc/dcmitype/StillImage" /><dc:title /></cc:Work></rdf:RDF></metadata><defs
     id="defs7"><linearGradient
       id="linearGradient4573"
       osb:paint="solid"><stop
         style="stop-color:#000000;stop-opacity:1;"
         offset="0"
         id="stop4575" /></linearGradient><linearGradient
       id="linearGradient4567"><stop
         style="stop-color:#e3443c;stop-opacity:1"
         offset="0"
         id="stop4555" /><stop
         style="stop-color:#fb7468;stop-opacity:1"
         offset="1"
         id="stop4557" /></linearGradient><linearGradient
       xlink:href="#linearGradient4567"
       id="linearGradient4559"
       x1="49.685051"
       y1="99.74057"
       x2="49.416084"
       y2="-0.033394534"
       gradientUnits="userSpaceOnUse" /></defs><circle
     style="opacity:1;fill:#ffffff;fill-opacity:1;fill-rule:nonzero;stroke:none;stroke-width:5.99881887;stroke-linecap:butt;stroke-linejoin:miter;stroke-miterlimit:4;stroke-dasharray:none;stroke-opacity:1"
     id="path3561"
     cx="50"
     cy="34.345039"
     r="30" /><path
     d="M 50.001953 0 C 30.108953 0 13.980469 17.104531 13.980469 36.019531 C 13.980469 62.663531 49.260953 99.667094 50.001953 99.996094 C 50.740953 100.32509 86.019531 62.663531 86.019531 36.019531 C 86.019531 16.118531 69.894953 -4.7369516e-15 50.001953 0 z M 50 8.6269531 A 26.718199 26.718199 0 0 1 76.71875 35.34375 A 26.718199 26.718199 0 0 1 50 62.0625 A 26.718199 26.718199 0 0 1 23.28125 35.34375 A 26.718199 26.718199 0 0 1 50 8.6269531 z "
     id="path3"
     style="fill:url(#linearGradient4559);stroke:#000000;fill-opacity:1;stroke-width:0.5;stroke-miterlimit:4;stroke-dasharray:none;stroke-opacity:1" /><g
     style="font-style:normal;font-variant:normal;font-weight:900;font-stretch:normal;font-size:45px;line-height:125%;font-family:Raleway;-inkscape-font-specification:'Raleway, Heavy';text-align:start;letter-spacing:0px;word-spacing:0px;writing-mode:lr-tb;text-anchor:start;fill:#000000;fill-opacity:1;stroke:none;stroke-width:1px;stroke-linecap:butt;stroke-linejoin:miter;stroke-opacity:1"
     id="text4143"><path
       d="m 27.45635,47.239265 q 0,-2.25 0.36,-3.96 0.36,-1.71 1.17,-3.06 0.81,-1.395 2.07,-2.475 1.305,-1.08 3.195,-2.115 2.43,-1.305 3.825,-2.07 1.44,-0.81 2.16,-1.305 0.72,-0.495 0.9,-0.81 0.225,-0.36 0.225,-0.765 0,-1.125 -0.72,-1.665 -0.72,-0.54 -1.98,-0.54 -1.485,0 -2.835,0.765 -1.305,0.765 -2.745,2.475 l -5.4,-6.345 q 0.855,-0.945 2.205,-1.71 1.35,-0.81 2.97,-1.35 1.665,-0.585 3.51,-0.9 1.845,-0.315 3.78,-0.315 5.175,0 7.83,2.16 2.7,2.115 2.7,5.94 0,1.395 -0.36,2.475 -0.36,1.08 -0.99,1.98 -0.585,0.855 -1.44,1.575 -0.855,0.72 -1.8,1.35 -1.125,0.765 -2.385,1.485 -1.215,0.675 -2.43,1.53 l 9.9,0 0,7.65 -23.715,0 z"
       style="font-style:normal;font-variant:normal;font-weight:900;font-stretch:normal;font-size:45px;line-height:125%;font-family:Raleway;-inkscape-font-specification:'Raleway, Heavy';text-align:start;writing-mode:lr-tb;text-anchor:start"
       id="path4144" /><path
       d="m 70.323772,27.889265 0,6.75 -3.825,0 0,4.275 -7.65,0 0,-4.275 -3.825,0 0,-6.75 3.825,0 0,-4.275 7.65,0 0,4.275 3.825,0 z"
       style="font-style:normal;font-variant:normal;font-weight:900;font-stretch:normal;font-size:45px;line-height:125%;font-family:Raleway;-inkscape-font-specification:'Raleway, Heavy';text-align:start;writing-mode:lr-tb;text-anchor:start"
       id="path4146" /></g></svg>