<?xml version="1.0" encoding="UTF-8" standalone="no"?>
<svg
   xmlns:osb="http://www.openswatchbook.org/uri/2009/osb"
   xmlns:dc="http://purl.org/dc/elements/1.1/"
   xmlns:cc="http://creativecommons.org/ns#"
   xmlns:rdf="http://www.w3.org/1999/02/22-rdf-syntax-ns#"
   xmlns:svg="http://www.w3.org/2000/svg"
   xmlns="http://www.w3.org/2000/svg"
   xmlns:xlink="http://www.w3.org/1999/xlink"
   xmlns:sodipodi="http://sodipodi.sourceforge.net/DTD/sodipodi-0.dtd"
   xmlns:inkscape="http://www.inkscape.org/namespaces/inkscape"
   xml:space="preserve"
   enable-background="new 0 0 100 100"
   viewBox="0 0 100 100"
   height="100px"
   width="100px"
   y="0px"
   x="0px"
   id="Layer_1"
   version="1.1"
   inkscape:version="0.91 r13725"
   sodipodi:docname="add.svg"><sodipodi:namedview
     pagecolor="#ffffff"
     bordercolor="#666666"
     borderopacity="1"
     objecttolerance="10"
     gridtolerance="10"
     guidetolerance="10"
     inkscape:pageopacity="0"
     inkscape:pageshadow="2"
     inkscape:window-width="1145"
     inkscape:window-height="600"
     id="namedview13"
     showgrid="false"
     inkscape:zoom="2.36"
     inkscape:cx="4.5687698"
     inkscape:cy="50"
     inkscape:window-x="0"
     inkscape:window-y="0"
     inkscape:window-maximized="0"
     inkscape:current-layer="Layer_1" /><metadata
     id="metadata9"><rdf:RDF><cc:Work
         rdf:about=""><dc:format>image/svg+xml</dc:format><dc:type
           rdf:resource="http://purl.org/dc/dcmitype/StillImage" /><dc:title /></cc:Work></rdf:RDF></metadata><defs
     id="defs7"><linearGradient
       id="linearGradient4328"><stop
         style="stop-color:#0a16ea;stop-opacity:1"
         offset="0"
         id="stop4330" /><stop
         style="stop-color:#68adfb;stop-opacity:1"
         offset="1"
         id="stop4332" /></linearGradient><linearGradient
       id="linearGradient4567"><stop
         style="stop-color:#e3443c;stop-opacity:1"
         offset="0"
         id="stop4314" /><stop
         style="stop-color:#0000ff;stop-opacity:1"
         offset="1"
         id="stop4316" /></linearGradient><linearGradient
       osb:paint="solid"
       id="linearGradient4573"><stop
         id="stop4575"
         offset="0"
         style="stop-color:#000000;stop-opacity:1;" /></linearGradient><linearGradient
       id="linearGradient4318"><stop
         id="stop4555"
         offset="0"
         style="stop-color:#e3443c;stop-opacity:1" /><stop
         id="stop4557"
         offset="1"
         style="stop-color:#fb7468;stop-opacity:1" /></linearGradient><linearGradient
       gradientUnits="userSpaceOnUse"
       y2="-0.033394534"
       x2="49.416084"
       y1="99.74057"
       x1="49.685051"
       id="linearGradient4559"
       xlink:href="#linearGradient4318" /><linearGradient
       inkscape:collect="always"
       xlink:href="#linearGradient4328"
       id="linearGradient4326"
       x1="49.747417"
       y1="100.42713"
       x2="49.828854"
       y2="-0.84405518"
       gradientUnits="userSpaceOnUse" /></defs><circle
     r="30"
     cy="34.345039"
     cx="50"
     id="path3561"
     style="opacity:1;fill:#ffffff;fill-opacity:1;fill-rule:nonzero;stroke:none;stroke-width:5.99881887;stroke-linecap:butt;stroke-linejoin:miter;stroke-miterlimit:4;stroke-dasharray:none;stroke-opacity:1" /><path
     style="fill:url(#linearGradient4326);stroke:#000000;fill-opacity:1;stroke-width:0.5;stroke-miterlimit:4;stroke-dasharray:none;stroke-opacity:1"
     id="path3"
     d="M 50.001953 0 C 30.108953 0 13.980469 17.104531 13.980469 36.019531 C 13.980469 62.663531 49.260953 99.667094 50.001953 99.996094 C 50.740953 100.32509 86.019531 62.663531 86.019531 36.019531 C 86.019531 16.118531 69.894953 -4.7369516e-15 50.001953 0 z M 50 8.6269531 A 26.718199 26.718199 0 0 1 76.71875 35.34375 A 26.718199 26.718199 0 0 1 50 62.0625 A 26.718199 26.718199 0 0 1 23.28125 35.34375 A 26.718199 26.718199 0 0 1 50 8.6269531 z " /><path
     id="path3503"
     d="m 50.000227,12.761907 c -12.375266,0 -22.406811,10.031546 -22.406811,22.406813 0,12.375267 10.031546,22.407269 22.406811,22.407269 12.375268,0 22.406357,-10.032002 22.406357,-22.407269 0,-12.375267 -10.031089,-22.406813 -22.406357,-22.406813 z m 12.579705,22.882311 c 0,1.755053 -1.422843,3.177896 -3.177896,3.177896 l -6.405076,0 0,6.404619 c 0,1.755509 -1.422843,3.178352 -3.177895,3.178352 l -0.0324,0 c -1.755509,0 -3.178353,-1.422843 -3.178353,-3.178352 l 0,-6.404619 -6.861407,0 c -1.755052,0 -3.177895,-1.422843 -3.177895,-3.177896 l 0,-0.03286 c 0,-1.755053 1.422843,-3.177896 3.177895,-3.177896 l 6.861407,0 0,-6.861408 c 0,-1.755052 1.422844,-3.177896 3.177896,-3.177896 l 0.0324,0 c 1.75551,0 3.178353,1.422844 3.178353,3.177896 l 0,6.861408 6.405076,0 c 1.755053,0 3.177896,1.422843 3.177896,3.177896 l 0,0.03286 z"
     inkscape:connector-curvature="0" /></svg>