<?xml version="1.0" encoding="UTF-8" standalone="no"?>
<svg
   xmlns:osb="http://www.openswatchbook.org/uri/2009/osb"
   xmlns:dc="http://purl.org/dc/elements/1.1/"
   xmlns:cc="http://creativecommons.org/ns#"
   xmlns:rdf="http://www.w3.org/1999/02/22-rdf-syntax-ns#"
   xmlns:svg="http://www.w3.org/2000/svg"
   xmlns="http://www.w3.org/2000/svg"
   xmlns:xlink="http://www.w3.org/1999/xlink"
   xml:space="preserve"
   enable-background="new 0 0 100 100"
   viewBox="0 0 100 100"
   height="100px"
   width="100px"
   y="0px"
   x="0px"
   id="Layer_1"
   version="1.1"><metadata
     id="metadata9"><rdf:RDF><cc:Work
         rdf:about=""><dc:format>image/svg+xml</dc:format><dc:type
           rdf:resource="http://purl.org/dc/dcmitype/StillImage" /><dc:title></dc:title></cc:Work></rdf:RDF></metadata><defs
     id="defs7"><linearGradient
       osb:paint="solid"
       id="linearGradient4573"><stop
         id="stop4575"
         offset="0"
         style="stop-color:#000000;stop-opacity:1;" /></linearGradient><linearGradient
       id="linearGradient4567"><stop
         id="stop4555"
         offset="0"
         style="stop-color:#e3443c;stop-opacity:1" /><stop
         id="stop4557"
         offset="1"
         style="stop-color:#fb7468;stop-opacity:1" /></linearGradient><linearGradient
       gradientUnits="userSpaceOnUse"
       y2="-0.033394534"
       x2="49.416084"
       y1="99.74057"
       x1="49.685051"
       id="linearGradient4559"
       xlink:href="#linearGradient4567" /></defs><circle
     r="30"
     cy="34.345039"
     cx="50"
     id="path3561"
     style="opacity:1;fill:#ffffff;fill-opacity:1;fill-rule:nonzero;stroke:none;stroke-width:5.99881887;stroke-linecap:butt;stroke-linejoin:miter;stroke-miterlimit:4;stroke-dasharray:none;stroke-opacity:1" /><path
     style="fill:url(#linearGradient4559);stroke:#000000;fill-opacity:1;stroke-width:0.5;stroke-miterlimit:4;stroke-dasharray:none;stroke-opacity:1"
     id="path3"
     d="M 50.001953 0 C 30.108953 0 13.980469 17.104531 13.980469 36.019531 C 13.980469 62.663531 49.260953 99.667094 50.001953 99.996094 C 50.740953 100.32509 86.019531 62.663531 86.019531 36.019531 C 86.019531 16.118531 69.894953 -4.7369516e-15 50.001953 0 z M 50 8.6269531 A 26.718199 26.718199 0 0 1 76.71875 35.34375 A 26.718199 26.718199 0 0 1 50 62.0625 A 26.718199 26.718199 0 0 1 23.28125 35.34375 A 26.718199 26.718199 0 0 1 50 8.6269531 z " /><path
     id="path4416"
     d="m 37.029838,14.841841 c 0.247543,0.338308 0.462078,0.684867 0.693116,1.031419 0.05776,0.0082 0.173277,0.0082 0.239288,0.0082 0.09902,-0.231039 0.198036,-0.453828 0.3053,-0.676612 0.09902,0.189781 0.198036,0.387811 0.313555,0.577591 0.09902,-0.239287 0.181526,-0.486825 0.264042,-0.734368 0.07426,0.288795 0.140273,0.577597 0.231039,0.858142 0.19803,-0.156777 0.396065,-0.305299 0.585846,-0.453827 0.148522,0.379566 0.288796,0.767378 0.396065,1.163443 -0.255792,0.140273 -0.511584,0.272297 -0.759128,0.412569 0.775633,0.651859 1.815302,0.92415 2.557925,1.64202 1.006666,0.981912 1.922565,2.079343 2.491908,3.37481 0.552842,0.957158 0.759128,2.071087 1.394482,2.978738 0.470326,0.701366 0.948908,1.394482 1.51825,2.021586 0.470327,0.569343 1.295467,0.511586 1.939069,0.734369 0.627106,0.214535 1.278963,0.0082 1.914317,0.02475 1.212951,0.033 2.54967,0.09077 3.605848,-0.6106 0.800382,-0.528089 1.493497,-1.237705 1.972073,-2.071094 0.305301,-0.49508 0.206285,-1.09743 0.305301,-1.642019 0.222789,-1.576007 0.412569,-3.23453 1.287211,-4.604259 0.594102,-0.858142 1.526506,-1.600766 2.615682,-1.592511 0.462077,0.06602 0.726119,0.478575 0.932404,0.849888 0.404321,0.07426 0.9159,-0.0495 1.196446,0.313555 0.536339,0.404315 0.858144,1.006665 1.361479,1.452239 0.668357,0.528083 0.990162,1.353223 1.617266,1.922565 -0.07426,0.239288 -0.189781,0.470326 -0.198036,0.71787 0.123774,0.247537 0.396065,0.412565 0.445579,0.68486 -0.09902,0.536339 -0.404321,1.006666 -0.495087,1.543005 -0.0082,0.321805 0.189781,0.594102 0.206286,0.907651 -0.04125,0.849888 -0.470328,1.724535 -0.173277,2.566173 0.354808,0.800381 0.231039,1.691528 0.420819,2.524917 0.264042,0.767378 -0.594101,1.377978 -1.179947,1.675028 -0.255792,0.957159 0.08251,2.079344 -0.6106,2.887974 -0.321805,0.462076 -0.742623,0.874647 -0.990161,1.386232 -0.115514,0.701365 0.239288,1.336719 0.453823,1.963823 0.05776,1.287212 -0.214535,2.582673 -0.693116,3.77087 -0.51158,0.965413 -1.14694,1.848305 -1.807047,2.714702 -0.346557,0.445573 -0.709616,0.907645 -1.229455,1.163437 -0.891146,0.478583 -1.716281,1.072678 -2.648685,1.452245 -0.569341,0.107266 -1.155188,0.05776 -1.724535,0.115513 -0.19803,0.0495 -0.585846,-0.0495 -0.709616,0.198031 -0.18978,0.858143 -0.0082,1.749289 0.272293,2.566174 0.503335,0.552842 1.295465,0.660107 1.963829,0.924149 -0.618856,0.115514 -1.237705,-0.04125 -1.84831,-0.09902 0.198035,1.01492 0.420818,2.029835 0.825139,2.986992 -0.09902,0.09077 -0.206285,0.173282 -0.3053,0.264042 -0.330054,-0.486825 -0.429074,-1.377977 -1.13869,-1.443984 -0.808634,-0.255791 -1.295465,0.51158 -1.947318,0.783877 -0.882897,0.420819 -1.765794,0.940654 -2.772459,0.940654 0.313549,-0.412565 0.701365,-0.775628 1.196446,-0.932399 0.585846,-0.181531 1.130434,-0.495086 1.543004,-0.957158 -0.841638,-0.09077 -1.691527,-0.05777 -2.533165,-0.198035 -0.280547,0.618854 -0.610606,1.344974 -0.363063,2.029834 0.437323,0.486831 1.155193,0.569343 1.732785,0.83339 -0.396065,0.04125 -0.80038,0.09077 -1.188197,0 -0.38781,-0.0082 -0.825134,-0.239294 -1.179942,0.0082 -0.585845,0.412569 -1.113935,0.891146 -1.699782,1.303714 -0.02475,-0.247542 -0.04125,-0.495079 -0.05776,-0.734373 -1.510002,0.115525 -3.036502,0.189787 -4.546502,0.09902 0.305299,-0.272297 0.643609,-0.536339 1.047924,-0.643608 0.80863,-0.189781 1.642019,-0.107266 2.458904,-0.148523 -0.272297,-0.321804 -0.71787,-0.371312 -1.089182,-0.528089 0.06602,-0.115525 0.132023,-0.239289 0.198036,-0.354807 0.759122,0.09077 1.427484,0.544588 2.194862,0.585846 0.585846,-0.734369 1.039669,-1.584263 1.435734,-2.43415 0.3053,-1.006665 0.668362,-2.013331 0.759128,-3.061255 -0.627104,-0.420819 -1.377977,-0.60235 -2.021586,-0.981912 -0.321799,-0.338308 -0.379562,-0.825139 -0.404315,-1.262458 -0.825135,-0.544593 -1.229454,-1.510001 -2.062839,-2.046339 -0.478581,-0.354808 -1.039674,-0.594096 -1.501752,-0.973663 -0.651852,-0.50333 -1.460487,-0.767377 -2.104095,-1.287211 -0.231039,-0.148523 -0.437319,-0.41257 -0.750874,-0.41257 -0.627105,-0.04125 -1.303716,-0.132018 -1.757539,-0.618849 -1.278962,-1.237705 -2.615681,-2.648685 -2.970488,-4.463987 -0.412571,-1.972078 0.222783,-3.952401 0.321803,-5.92448 0.08251,-1.493497 0.882892,-2.830216 1.031419,-4.315464 0.288796,-1.311964 0.06602,-2.706446 0.519835,-3.993659 0.148523,-0.396065 -0.06602,-0.80038 -0.198036,-1.163437 -0.272291,0.231033 -0.528083,0.552837 -0.915899,0.585846 -0.602351,-0.04125 -1.138684,-0.41257 -1.410981,-0.948909 -0.429074,-0.569341 -0.288801,-1.311965 -0.148529,-1.955573 -0.643602,-0.033 -1.278956,0.140273 -1.922565,0.165026 0.140273,-0.420819 0.42082,-0.750873 0.750874,-1.039669 0.222788,-0.165027 0.198035,-0.462077 0.247543,-0.71787 0.132023,-0.08251 0.255792,-0.173276 0.387815,-0.255792 0.04125,-0.470327 0.09076,-0.940654 0.198031,-1.402732 0.148523,0.0165 0.29705,0.02475 0.437323,0.04125 0.0165,-0.2888 0.02476,-0.577596 0.0495,-0.858143 0.173277,0.12377 0.354808,0.247544 0.544588,0.363063 0.0082,-0.330053 -0.04125,-0.668363 -0.09077,-0.998416 0.272297,0.148522 0.51984,0.321804 0.775632,0.486831 0,-0.354807 -0.0082,-0.70962 -0.0082,-1.064427 m 15.694088,34.441186 c -0.396065,0.354807 -0.973662,0.511584 -1.2212,1.006665 -0.41257,0.684861 -0.701365,1.435734 -1.023169,2.161859 0.627104,0.156773 1.303716,0.3053 1.947319,0.148523 0.668363,-0.255793 1.02317,-0.965408 1.179947,-1.617266 0.140273,-0.82514 0.29705,-1.658523 0.214534,-2.500163 -0.396065,0.222784 -0.759122,0.503331 -1.097431,0.800382 z"
     style="fill:#000000;stroke:#000000;stroke-width:0.00773565" /></svg>