<?xml version="1.0" encoding="UTF-8" standalone="no"?>
<svg
   xmlns:osb="http://www.openswatchbook.org/uri/2009/osb"
   xmlns:dc="http://purl.org/dc/elements/1.1/"
   xmlns:cc="http://creativecommons.org/ns#"
   xmlns:rdf="http://www.w3.org/1999/02/22-rdf-syntax-ns#"
   xmlns:svg="http://www.w3.org/2000/svg"
   xmlns="http://www.w3.org/2000/svg"
   xmlns:xlink="http://www.w3.org/1999/xlink"
   xml:space="preserve"
   enable-background="new 0 0 100 100"
   viewBox="0 0 100 100"
   height="100px"
   width="100px"
   y="0px"
   x="0px"
   id="Layer_1"
   version="1.1"><metadata
     id="metadata9"><rdf:RDF><cc:Work
         rdf:about=""><dc:format>image/svg+xml</dc:format><dc:type
           rdf:resource="http://purl.org/dc/dcmitype/StillImage" /><dc:title></dc:title></cc:Work></rdf:RDF></metadata><defs
     id="defs7"><linearGradient
       osb:paint="solid"
       id="linearGradient4573"><stop
         id="stop4575"
         offset="0"
         style="stop-color:#000000;stop-opacity:1;" /></linearGradient><linearGradient
       id="linearGradient4567"><stop
         id="stop4555"
         offset="0"
         style="stop-color:#e3443c;stop-opacity:1" /><stop
         id="stop4557"
         offset="1"
         style="stop-color:#fb7468;stop-opacity:1" /></linearGradient><linearGradient
       gradientUnits="userSpaceOnUse"
       y2="-0.033394534"
       x2="49.416084"
       y1="99.74057"
       x1="49.685051"
       id="linearGradient4559"
       xlink:href="#linearGradient4567" /></defs><circle
     r="30"
     cy="34.345039"
     cx="50"
     id="path3561"
     style="opacity:1;fill:#ffffff;fill-opacity:1;fill-rule:nonzero;stroke:none;stroke-width:5.99881887;stroke-linecap:butt;stroke-linejoin:miter;stroke-miterlimit:4;stroke-dasharray:none;stroke-opacity:1" /><g
     transform="matrix(0.48326002,0,0,0.48326002,23.836999,7.5185711)"
     id="g5156"><path
       d="m 82.324,82.051 3.972,4.616 -73.386,0.02 0.898,-5.671 8.06,-4.479 -1.25,-9.492 10.69,-0.938 0.553,-4.936 12.422,-1.067 0.717,-8.876 2.135,-2.839 4.967,1.064 0.573,4.727 7.949,-0.494 0.501,8.945 8.939,3.477 0.501,6.953 c 0.769,1.067 4.668,-0.639 5.345,0.352 0.69,1.002 -0.618,-0.977 0,0 -0.872,4.121 5.222,4.824 5.222,4.824 l 1.192,3.814 z"
       id="path5132" /><path
       d="m 72.617,52.24 -3.743,-1.273 c -1.276,0.98 -1.745,2.002 -1.381,3.07 l 1.875,2.154 2.826,-0.943 c 1.021,-0.339 1.373,-0.983 1.067,-1.889 -0.104,-0.318 -0.305,-0.703 -0.644,-1.119 z"
       id="path5134" /><path
       d="m 70.234,42.282 c -0.827,-0.4 -1.68,-0.466 -2.604,-0.163 -0.488,0.163 -0.996,0.485 -1.562,0.974 l 0.15,4.434 4.297,-0.534 c 1.126,-1.282 1.549,-2.324 1.289,-3.125 -0.222,-0.639 -0.737,-1.173 -1.57,-1.586 z"
       id="path5136" /><path
       d="m 83.411,48.441 0.026,0.088 c -0.163,0.055 -0.938,-0.124 -2.344,-0.566 -0.677,-0.234 -1.36,-0.488 -2.044,-0.756 -0.971,0.329 -1.576,1.299 -1.811,2.897 -0.234,1.604 -0.078,3.216 0.456,4.831 0.144,0.436 0.481,0.911 1.016,1.458 l 0.918,0.859 1.582,-0.085 c 1.784,-0.774 2.8,-1.204 3.073,-1.295 0.645,-0.391 1.08,-1.198 1.302,-2.409 0.222,-1.224 0.137,-2.383 -0.247,-3.513 -0.423,-1.284 -1.061,-1.796 -1.927,-1.509 z"
       id="path5138" /><path
       d="m 76.484,61.641 -0.931,3.373 c 0.689,0.605 1.686,1.028 3.014,1.224 l 3.139,-1.055 -1.589,-4.753 -3.633,1.211 z"
       id="path5140" /><path
       d="m 92.461,55.566 -0.938,3.373 c 0.696,0.605 1.687,1.021 3.021,1.224 l 3.139,-1.048 -1.596,-4.766 -3.626,1.217 z"
       id="path5142" /><path
       d="m 94.772,80.873 -0.932,3.372 c 0.697,0.612 1.687,1.022 3.015,1.224 L 100,84.421 98.405,79.662 94.772,80.873 Z"
       id="path5144" /><path
       d="M 93.887,65.912 C 92.064,63.887 89.818,63.32 87.136,64.219 l -0.397,0.131 c -1.27,1.119 -2.317,2.76 -3.196,4.876 -0.854,2.024 -1.101,3.613 -0.717,4.772 0.033,0.091 0.866,0.853 2.48,2.305 1.719,1.406 2.676,2.35 2.878,2.825 l 5.085,-1.706 c 0.586,-0.195 1.158,-0.469 1.699,-0.82 0.553,-0.352 1.009,-0.768 1.387,-1.211 0.371,-0.442 0.645,-0.898 0.82,-1.348 0.162,-0.449 0.188,-0.879 0.045,-1.289 -1.1,-3.301 -2.213,-5.579 -3.333,-6.842 z"
       id="path5146" /><path
       d="M 34.551,27.015 26.745,32.028 17.338,16.458 18.965,9.036 15.677,3.915 17.109,3 15.182,0 0,9.73 l 1.927,3.004 1.426,-0.915 3.274,5.114 7.344,1.608 9.434,15.622 -7.838,5.026 c 0,0 7.643,12.592 12.611,13.949 4.974,1.354 10.332,0.943 10.332,0.943 0,0 2.604,-4.697 3.457,-9.778 0.845,-5.074 -7.416,-17.288 -7.416,-17.288 z M 14.798,16.107 8.216,14.662 5.508,10.44 l 8.027,-5.143 2.702,4.229 -1.439,6.581 z"
       id="path5148" /></g><path
     style="fill:url(#linearGradient4559);stroke:#000000;fill-opacity:1;stroke-width:0.5;stroke-miterlimit:4;stroke-dasharray:none;stroke-opacity:1"
     id="path3"
     d="M 50.001953 0 C 30.108953 0 13.980469 17.104531 13.980469 36.019531 C 13.980469 62.663531 49.260953 99.667094 50.001953 99.996094 C 50.740953 100.32509 86.019531 62.663531 86.019531 36.019531 C 86.019531 16.118531 69.894953 -4.7369516e-15 50.001953 0 z M 50 8.6269531 A 26.718199 26.718199 0 0 1 76.71875 35.34375 A 26.718199 26.718199 0 0 1 50 62.0625 A 26.718199 26.718199 0 0 1 23.28125 35.34375 A 26.718199 26.718199 0 0 1 50 8.6269531 z " /></svg>